<?xml version="1.0" standalone="no"?>
<!DOCTYPE svg PUBLIC "-//W3C//DTD SVG 20010904//EN"
 "http://www.w3.org/TR/2001/REC-SVG-20010904/DTD/svg10.dtd">
<svg version="1.0" xmlns="http://www.w3.org/2000/svg"
 width="1455.000000pt" height="1455.000000pt" viewBox="0 0 1455.000000 1455.000000"
 preserveAspectRatio="xMidYMid meet">
<metadata>
Created by potrace 1.11, written by Peter Selinger 2001-2013
</metadata>
<g transform="translate(0.000000,1455.000000) scale(0.100000,-0.100000)"
fill="#000000" stroke="none">
<path d="M7703 14531 c-3 -12 -9 -19 -13 -16 -4 3 -19 -5 -34 -16 -14 -11 -30
-18 -35 -15 -18 12 -101 17 -102 6 -1 -5 -2 -16 -3 -22 -1 -7 3 -19 8 -27 9
-12 8 -13 -4 -6 -12 7 -13 6 -4 -6 7 -8 8 -22 4 -34 -11 -27 -76 -84 -106 -91
-13 -3 -24 -10 -24 -14 0 -5 -10 -10 -22 -12 -13 -2 -22 -9 -20 -16 1 -6 -7
-12 -18 -12 -11 0 -20 -4 -20 -10 0 -5 -9 -10 -20 -10 -11 0 -20 -4 -20 -10 0
-5 -7 -10 -15 -10 -8 0 -15 -5 -15 -11 0 -5 -5 -7 -10 -4 -6 3 -13 -1 -16 -9
-3 -9 -12 -16 -20 -16 -7 0 -17 -7 -22 -16 -6 -11 -12 -13 -16 -6 -4 6 -13 9
-21 6 -8 -4 -13 -10 -10 -14 3 -4 -2 -13 -10 -20 -8 -7 -15 -10 -15 -7 0 9
-98 -42 -105 -53 -4 -6 -10 -8 -15 -5 -4 2 -24 -6 -44 -20 -20 -14 -42 -25
-48 -25 -7 0 -21 -9 -32 -19 -12 -11 -36 -22 -54 -26 -31 -5 -82 -28 -157 -69
-16 -9 -38 -16 -47 -16 -10 0 -18 -4 -18 -9 0 -16 -226 -105 -247 -97 -7 3
-15 1 -18 -4 -7 -11 -105 -44 -127 -42 -10 0 -18 -3 -18 -7 0 -4 -31 -15 -70
-26 -38 -11 -70 -23 -70 -27 0 -4 -11 -8 -25 -8 -14 0 -25 -4 -25 -10 0 -5
-13 -10 -28 -10 -16 0 -32 -3 -36 -7 -4 -5 -11 -8 -14 -9 -4 -1 -23 -7 -42
-15 -19 -7 -38 -12 -42 -11 -5 1 -8 -2 -8 -7 0 -5 -13 -12 -29 -16 -35 -7
-102 -41 -111 -55 -3 -5 -20 -12 -38 -14 -17 -2 -37 -8 -44 -13 -16 -12 -130
-53 -166 -59 -15 -3 -29 -9 -32 -13 -3 -5 -39 -19 -80 -32 -41 -12 -77 -26
-80 -30 -5 -7 -59 -21 -87 -22 -7 0 -13 -4 -13 -8 0 -3 -8 -9 -17 -12 -10 -3
-63 -22 -118 -42 -55 -20 -104 -38 -110 -39 -5 -1 -20 -7 -32 -14 -12 -7 -31
-12 -42 -12 -11 0 -23 -4 -26 -10 -3 -5 -13 -10 -21 -10 -9 0 -40 -11 -71 -25
-30 -14 -57 -24 -60 -21 -2 2 -28 -3 -56 -10 -29 -8 -68 -17 -87 -19 -19 -3
-37 -9 -40 -13 -9 -14 -44 -26 -83 -27 -20 -1 -46 -10 -57 -20 -10 -9 -32 -19
-47 -20 -15 -2 -40 -8 -54 -13 -15 -6 -29 -9 -32 -6 -2 2 -17 -1 -33 -7 -16
-7 -36 -13 -44 -14 -8 0 -24 -6 -35 -11 -11 -6 -31 -10 -45 -9 -14 1 -30 -2
-36 -7 -7 -5 -25 -11 -40 -13 -49 -8 -136 -26 -224 -46 -61 -14 -72 -16 -112
-23 -20 -3 -48 -10 -64 -16 -16 -6 -31 -12 -34 -13 -3 -1 -4 -5 -3 -8 1 -3
-10 -4 -24 -1 -15 3 -23 1 -20 -4 3 -6 -3 -10 -13 -11 -13 -1 -17 3 -13 14 5
13 3 13 -15 4 -11 -6 -24 -15 -27 -21 -3 -5 -11 -7 -19 -4 -7 3 -25 0 -40 -5
-21 -9 -28 -8 -32 4 -8 20 -144 22 -144 3 0 -10 -2 -10 -8 -1 -9 15 -62 5 -62
-13 0 -7 -6 -11 -14 -8 -8 3 -31 1 -53 -5 -38 -10 -109 -22 -148 -25 -11 0
-23 -5 -27 -11 -4 -6 -62 -11 -130 -12 -68 -1 -133 -4 -146 -7 -13 -3 -22 0
-22 7 0 9 -2 9 -8 1 -5 -9 -107 -13 -107 -4 0 1 -20 4 -45 6 -25 2 -67 7 -95
11 -50 8 -168 9 -194 2 -8 -2 -25 18 -43 51 -31 57 -46 72 -63 67 -5 -2 -16 3
-23 10 -11 10 -17 11 -28 2 -8 -6 -14 -7 -14 -2 0 5 -18 9 -40 9 -24 -1 -40
-6 -40 -13 0 -6 -10 -13 -22 -15 -14 -2 -29 -15 -37 -33 -14 -28 -14 -29 -22
-7 -5 12 -13 22 -18 22 -5 0 -17 3 -27 7 -13 5 -16 3 -11 -10 3 -9 2 -17 -3
-17 -6 0 -10 -7 -10 -15 0 -18 -39 -35 -82 -35 -17 0 -28 -3 -24 -7 13 -14
-37 -31 -58 -20 -51 25 -56 27 -56 17 0 -5 -5 -9 -12 -7 -8 1 -12 -11 -12 -33
0 -19 -6 -41 -14 -49 -7 -8 -10 -17 -5 -20 14 -10 7 -51 -10 -64 -12 -9 -17
-34 -20 -94 -2 -46 -6 -85 -9 -88 -8 -9 11 -87 28 -112 8 -13 12 -23 8 -23 -3
0 5 -15 19 -34 15 -18 23 -36 20 -40 -3 -3 0 -12 7 -21 7 -8 9 -15 4 -15 -5 0
-2 -6 6 -13 15 -11 17 -19 23 -77 1 -14 7 -28 13 -32 7 -4 22 -40 34 -80 12
-40 38 -118 57 -173 32 -94 38 -118 48 -189 2 -15 10 -34 16 -42 9 -11 8 -18
-1 -29 -7 -9 -8 -15 -2 -15 5 0 9 -13 8 -30 -1 -16 0 -31 3 -32 12 -6 40 -68
33 -72 -11 -6 -8 -47 5 -71 6 -11 9 -31 7 -44 -3 -16 3 -29 16 -38 21 -15 29
-40 8 -27 -6 4 -8 3 -5 -3 4 -6 9 -27 13 -48 3 -20 11 -57 19 -81 9 -32 10
-44 1 -48 -7 -3 -8 -7 -1 -13 6 -4 10 -19 9 -33 0 -14 3 -33 8 -42 5 -10 10
-56 13 -104 2 -47 9 -91 14 -98 6 -6 13 -36 16 -66 6 -53 11 -97 14 -113 0 -4
15 -5 31 -2 24 4 30 2 31 -12 1 -10 2 -24 3 -32 0 -8 -11 -27 -26 -43 -24 -26
-26 -32 -16 -61 6 -18 14 -36 18 -42 4 -5 8 -28 9 -50 1 -22 5 -42 9 -45 4 -3
8 -14 10 -25 4 -25 24 -68 37 -77 5 -4 0 -8 -12 -8 -16 0 -20 -5 -16 -20 3
-11 1 -20 -4 -20 -14 0 -33 -46 -23 -56 13 -14 60 -104 60 -116 0 -13 42 -101
52 -109 4 -3 9 -18 12 -35 3 -27 6 -37 23 -81 3 -10 7 -34 8 -53 0 -19 9 -62
20 -95 10 -33 19 -71 20 -85 1 -14 11 -56 24 -94 12 -37 20 -71 17 -73 -3 -3
1 -18 10 -34 8 -16 15 -32 16 -36 0 -5 7 -18 15 -30 8 -12 12 -27 8 -33 -3 -5
-2 -10 3 -10 5 0 15 -13 22 -30 7 -16 18 -30 25 -30 11 0 33 -55 42 -103 4
-23 23 -42 49 -51 13 -4 26 -22 33 -48 7 -23 19 -48 27 -55 8 -8 15 -22 15
-31 4 -43 7 -60 14 -71 4 -7 9 -27 12 -44 3 -18 9 -40 15 -50 5 -10 12 -31 15
-45 8 -41 11 -57 13 -57 1 0 4 -11 6 -25 3 -13 11 -28 20 -33 9 -5 13 -16 9
-28 -4 -10 -2 -19 3 -19 10 0 18 -31 29 -105 3 -22 11 -48 18 -59 8 -10 11
-25 8 -34 -5 -11 -2 -14 10 -9 9 3 19 2 22 -4 4 -5 -1 -12 -9 -15 -9 -3 -14
-9 -11 -13 2 -4 6 -18 9 -32 4 -23 30 -107 43 -139 4 -8 7 -17 8 -20 0 -3 10
-24 22 -47 12 -24 18 -43 13 -43 -5 0 0 -17 10 -38 10 -21 22 -50 25 -65 4
-15 13 -27 21 -27 15 0 19 -12 7 -24 -13 -13 -13 -47 0 -52 7 -2 14 -21 15
-42 3 -49 6 -63 20 -89 7 -12 12 -29 12 -37 0 -9 4 -16 9 -16 5 0 12 -21 16
-47 4 -27 13 -63 21 -82 8 -18 14 -43 14 -55 0 -12 4 -26 9 -32 5 -5 16 -33
25 -61 10 -29 23 -52 29 -50 6 1 13 -9 15 -22 3 -17 0 -21 -10 -15 -8 5 -7 -2
4 -18 12 -18 14 -29 7 -33 -6 -5 -7 -11 0 -18 5 -7 9 -15 8 -19 -1 -4 6 -16
15 -27 9 -11 15 -28 14 -38 -2 -10 1 -27 7 -38 6 -11 12 -24 12 -30 1 -5 6
-23 13 -38 7 -16 12 -39 12 -53 0 -15 6 -24 16 -24 10 0 14 -6 10 -15 -3 -8
-1 -15 4 -15 5 0 7 -7 4 -15 -4 -8 -1 -22 6 -30 7 -8 9 -15 5 -15 -4 0 0 -11
8 -23 14 -22 35 -85 44 -131 2 -10 12 -35 22 -55 25 -48 35 -73 32 -88 -1 -7
3 -13 9 -13 6 0 9 -4 6 -9 -4 -5 -2 -11 3 -13 6 -1 11 -15 13 -29 2 -15 10
-34 17 -43 7 -9 11 -16 7 -16 -4 0 3 -18 14 -40 11 -22 18 -40 14 -40 -3 0 0
-10 9 -23 13 -20 46 -105 51 -132 1 -5 11 -30 23 -55 13 -25 24 -54 25 -65 2
-11 7 -26 11 -32 5 -7 6 -13 3 -13 -3 0 1 -18 10 -39 8 -22 16 -54 18 -73 1
-18 5 -39 9 -45 5 -7 5 -17 2 -23 -3 -5 2 -21 11 -35 9 -14 12 -25 7 -25 -12
0 -9 -27 7 -65 7 -16 12 -38 11 -47 -4 -32 19 -95 45 -124 32 -37 68 -103 68
-129 2 -32 15 -45 46 -45 41 0 92 -74 67 -99 -8 -8 -6 -16 6 -29 21 -23 21
-32 2 -32 -8 0 -15 -4 -15 -9 0 -8 -77 -34 -110 -36 -8 -1 -33 -9 -54 -18 -29
-13 -42 -14 -52 -6 -10 8 -14 8 -14 0 0 -6 -7 -11 -15 -11 -8 0 -15 -5 -15
-11 0 -5 -5 -7 -10 -4 -6 4 -27 1 -48 -6 -20 -7 -45 -12 -55 -10 -9 1 -24 -4
-32 -13 -8 -8 -24 -13 -36 -11 -11 2 -22 -2 -25 -10 -3 -7 -14 -12 -25 -10
-10 2 -21 0 -24 -5 -3 -5 -12 -7 -20 -4 -8 3 -28 -4 -44 -15 -17 -12 -45 -27
-63 -33 -18 -6 -45 -19 -60 -30 -14 -10 -35 -18 -45 -18 -10 0 -37 -9 -58 -20
-22 -11 -53 -23 -69 -26 -16 -2 -37 -9 -47 -15 -10 -5 -22 -8 -26 -8 -4 1 -21
-3 -38 -10 -16 -7 -37 -10 -47 -8 -10 3 -18 1 -18 -5 0 -5 -14 -7 -30 -4 -17
2 -30 1 -30 -4 0 -13 -33 -21 -40 -10 -5 8 -9 6 -13 -5 -5 -12 -11 -14 -26 -5
-17 8 -19 7 -16 -8 2 -13 -3 -18 -18 -18 -12 1 -25 5 -29 11 -4 5 -15 2 -26
-8 -11 -10 -24 -17 -30 -15 -11 3 -62 -48 -62 -62 0 -5 -9 -12 -20 -15 -11 -3
-20 -13 -20 -20 0 -8 -5 -17 -12 -21 -7 -5 -9 -2 -5 8 3 9 1 20 -5 26 -8 8
-14 5 -23 -11 -6 -12 -17 -22 -25 -22 -8 -1 -14 -6 -12 -13 1 -7 -3 -12 -9
-12 -6 0 -9 -6 -6 -14 3 -8 -2 -16 -14 -19 -10 -3 -16 -1 -13 4 3 6 -5 7 -21
3 -27 -7 -85 -58 -85 -75 0 -6 -4 -8 -9 -4 -6 3 -27 -4 -48 -16 -21 -12 -50
-29 -65 -36 -15 -8 -30 -18 -33 -24 -4 -5 -14 -9 -23 -9 -26 0 -42 -14 -47
-40 -3 -13 -11 -28 -19 -32 -8 -5 -23 -16 -32 -26 -10 -9 -25 -17 -33 -17 -9
-1 -15 -6 -13 -13 1 -7 -4 -12 -11 -12 -24 0 -37 -21 -22 -36 8 -8 12 -27 10
-45 -4 -25 -1 -30 12 -25 12 5 13 3 5 -7 -7 -8 -7 -18 -2 -27 7 -11 2 -21 -18
-37 -19 -16 -22 -22 -11 -23 9 0 25 -8 37 -18 21 -18 21 -19 3 -53 -12 -23
-27 -36 -46 -39 -16 -3 -30 -11 -33 -17 -3 -11 11 -18 22 -10 8 4 46 -36 52
-56 4 -14 0 -25 -16 -37 -20 -15 -22 -21 -13 -47 6 -17 7 -36 2 -45 -14 -25
30 -69 61 -62 14 3 31 6 38 6 6 1 12 5 12 9 0 4 11 6 25 3 14 -2 25 0 25 6 0
9 65 4 83 -7 4 -2 7 0 7 4 0 5 18 8 41 8 26 0 44 5 49 15 5 8 10 10 10 3 0
-15 40 -4 40 12 0 9 11 11 35 8 22 -3 35 0 35 7 0 6 4 9 8 6 5 -3 20 1 34 8
14 8 37 11 51 9 19 -4 29 1 39 16 7 12 18 21 25 21 6 0 14 6 16 13 4 9 6 9 6
0 1 -9 8 -10 27 -3 18 7 31 7 39 0 10 -8 15 -8 20 0 4 6 13 9 20 6 7 -2 16 2
19 10 6 15 46 34 81 39 11 1 21 4 23 5 1 1 5 3 10 4 4 1 18 6 31 10 16 6 26 4
32 -5 7 -11 9 -11 9 2 0 16 31 27 85 31 11 1 25 8 30 15 6 7 28 15 50 17 22 3
59 11 83 20 23 8 44 15 47 16 3 0 6 0 8 1 1 0 17 2 36 4 19 2 37 8 40 13 3 5
13 9 21 9 38 2 90 12 109 23 12 6 31 8 41 5 11 -4 20 -2 20 3 0 6 11 9 25 8
13 -2 22 1 19 6 -3 5 9 6 26 3 18 -3 38 -1 46 6 8 6 14 8 14 4 0 -4 6 -3 13 3
6 6 29 13 50 17 20 4 37 10 37 14 0 4 8 7 18 8 10 1 44 10 75 21 31 11 57 18
57 15 0 -3 6 -1 13 4 6 5 19 9 27 8 8 0 18 3 21 7 3 5 14 10 25 13 20 4 292
85 359 106 22 7 43 17 46 22 3 5 12 7 20 6 8 -2 32 7 55 18 24 13 50 20 62 16
14 -3 24 0 28 10 7 19 34 11 34 -10 0 -15 -70 -92 -70 -77 -1 5 -7 -2 -15 -16
-8 -14 -15 -20 -15 -15 0 10 -17 -16 -42 -65 -7 -14 -20 -32 -30 -41 -10 -9
-15 -19 -11 -23 3 -3 1 -6 -5 -6 -7 0 -12 -9 -12 -19 0 -17 -14 -28 -38 -31
-4 -1 -11 -8 -15 -16 -5 -8 -12 -12 -18 -9 -5 4 -9 -1 -9 -10 0 -8 -9 -23 -20
-32 -24 -21 -27 -41 -3 -22 13 11 13 8 -2 -13 -11 -15 -26 -28 -34 -28 -9 0
-11 -8 -7 -24 4 -15 1 -30 -7 -38 -7 -7 -14 -17 -14 -21 -1 -4 -4 -18 -8 -30
-10 -31 -12 -39 -13 -64 -1 -14 -9 -23 -18 -23 -8 0 -13 -4 -10 -9 4 -5 2 -11
-2 -13 -14 -5 -24 -58 -12 -58 6 0 8 -5 4 -12 -4 -6 -8 -22 -9 -35 0 -12 -10
-29 -20 -38 -17 -13 -18 -16 -5 -25 12 -7 12 -10 1 -10 -7 0 -11 -6 -7 -15 3
-8 2 -15 -3 -15 -14 0 -10 -109 5 -124 19 -19 18 -72 -1 -80 -18 -7 -20 -26
-2 -26 7 0 14 -13 15 -30 2 -29 -5 -35 -34 -31 -17 2 -26 -29 -14 -44 8 -9 8
-15 1 -20 -13 -7 -10 -55 2 -55 6 0 6 -5 1 -12 -11 -16 -10 -106 1 -132 6 -13
5 -17 -3 -13 -14 9 -21 -22 -10 -51 4 -13 4 -22 -2 -22 -18 0 -10 -22 10 -27
22 -6 22 -31 0 -58 -8 -9 -13 -31 -13 -48 1 -18 -1 -26 -3 -19 -3 6 -9 12 -14
12 -11 0 -7 -33 5 -42 6 -5 5 -8 -2 -8 -16 0 -12 -32 6 -54 7 -9 9 -16 4 -16
-11 0 -10 -26 2 -53 4 -9 5 -28 3 -42 -4 -19 0 -26 23 -34 20 -7 27 -15 23
-25 -3 -9 -10 -16 -15 -16 -12 0 2 -33 20 -47 10 -8 12 -12 4 -13 -10 0 -10
-7 -2 -28 15 -36 19 -82 8 -82 -5 0 -1 -17 9 -38 11 -20 18 -47 16 -59 -2 -12
-4 -26 -5 -30 -4 -24 3 -43 15 -43 18 0 27 -25 14 -38 -6 -6 -6 -12 1 -16 6
-4 11 -18 11 -32 0 -14 4 -22 10 -19 6 3 10 1 10 -5 0 -6 5 -8 11 -4 6 3 9 15
6 25 -3 10 -2 21 2 24 10 5 35 -45 32 -62 -1 -7 5 -13 14 -13 8 0 15 -7 15
-15 0 -8 4 -15 10 -15 5 0 7 -6 4 -14 -3 -7 2 -16 11 -20 9 -3 13 -10 10 -16
-3 -5 -1 -10 5 -10 6 0 8 -5 5 -10 -3 -5 -2 -10 3 -10 5 0 8 -12 6 -26 -2 -21
1 -25 16 -21 13 3 25 -3 35 -19 16 -25 12 -50 -6 -39 -18 12 -28 -38 -13 -63
8 -12 11 -22 7 -22 -5 0 0 -5 10 -11 10 -6 17 -22 17 -39 0 -17 5 -30 10 -30
6 0 10 -9 10 -20 0 -11 4 -20 10 -20 5 0 9 -3 9 -7 -3 -17 1 -33 9 -32 4 1 12
0 17 -1 6 -1 15 -3 20 -5 6 -1 20 -3 33 -3 16 -2 22 -7 20 -19 -2 -13 3 -17
18 -15 11 1 29 -7 39 -18 10 -11 22 -20 27 -20 5 0 16 -7 24 -15 9 -8 21 -15
27 -14 9 0 8 2 0 6 -7 2 -13 13 -13 24 0 10 -6 19 -13 19 -7 0 -18 9 -25 20
-10 16 -10 20 1 20 14 0 49 33 45 41 -2 2 11 -10 27 -27 38 -40 89 -62 100
-43 3 4 14 1 24 -9 10 -9 29 -25 42 -34 13 -10 20 -18 15 -18 -18 0 27 -33 47
-34 12 -1 22 -8 22 -16 0 -8 9 -16 20 -19 11 -2 32 -12 46 -22 14 -10 30 -15
34 -11 5 4 5 2 1 -5 -4 -7 3 -14 16 -19 l21 -6 -23 -13 -23 -12 33 -17 c41
-20 54 -20 47 -1 -5 11 -1 12 18 5 14 -5 25 -7 25 -3 0 3 9 -2 20 -12 23 -21
11 -36 -22 -30 -11 3 -16 0 -12 -7 4 -6 24 -8 50 -4 29 4 47 1 56 -8 7 -7 19
-11 26 -8 7 2 21 -3 31 -12 10 -9 20 -14 23 -11 3 3 11 -1 18 -10 7 -8 21 -15
31 -15 10 0 21 -5 24 -10 4 -6 11 -8 16 -5 5 4 11 0 14 -7 3 -8 15 -15 28 -15
12 -1 26 -8 32 -16 5 -8 16 -12 23 -10 6 3 12 0 12 -7 0 -6 4 -9 9 -6 5 3 11
-3 14 -14 3 -13 14 -20 29 -20 17 0 19 3 9 9 -20 13 -4 33 17 22 9 -4 23 -6
30 -4 6 3 12 0 12 -6 0 -5 9 -8 20 -6 12 2 23 -2 27 -10 3 -8 10 -15 15 -15 5
0 18 -10 28 -22 16 -20 21 -21 56 -10 22 7 42 8 49 2 5 -5 28 -10 50 -12 28
-2 39 -7 37 -17 -2 -10 4 -12 20 -8 12 4 28 1 36 -5 10 -9 16 -8 22 2 7 12 10
12 15 -2 6 -16 13 -43 14 -61 1 -5 5 -6 10 -3 5 4 11 1 13 -6 2 -6 18 -12 34
-13 16 0 34 -4 40 -8 16 -10 26 4 13 19 -8 10 -3 12 23 7 18 -2 41 -5 51 -4
22 0 20 -41 -3 -50 -8 -3 -15 -12 -15 -19 0 -7 -6 -15 -12 -18 -7 -2 -13 1
-13 8 0 6 -4 8 -10 5 -5 -3 -10 0 -10 7 0 10 -3 9 -10 -2 -6 -9 -5 -17 1 -21
6 -3 9 -10 7 -15 -1 -5 7 -10 20 -12 12 -2 22 -7 22 -11 0 -5 10 -9 23 -9 20
-1 54 -7 67 -12 3 -1 8 -2 11 -2 4 1 6 -6 5 -16 -1 -12 6 -17 24 -15 19 1 26
-4 27 -18 2 -16 -2 -17 -17 -9 -16 9 -18 7 -15 -10 6 -30 -31 -41 -72 -22 -23
11 -33 23 -33 39 0 16 -6 23 -20 23 -11 0 -20 -6 -20 -12 -1 -8 -6 -6 -14 4
-7 10 -16 15 -19 11 -4 -3 -7 -1 -7 6 0 9 -8 11 -21 8 -12 -3 -19 -1 -16 6 2
6 -2 23 -9 36 -14 27 -9 45 9 35 7 -4 5 1 -4 10 -9 10 -22 19 -30 20 -8 2 -30
9 -49 17 -19 7 -38 12 -42 11 -5 -1 -8 3 -8 9 0 7 -12 9 -35 5 -20 -4 -35 -3
-35 3 0 5 -18 12 -40 16 -22 4 -40 11 -40 16 0 6 -4 8 -9 4 -5 -3 -12 4 -16
15 -3 11 -9 19 -13 19 -4 -1 -9 -1 -12 0 -22 8 -80 8 -75 1 4 -6 0 -10 -7 -10
-9 0 -9 -3 2 -10 8 -5 11 -10 5 -10 -5 0 0 -7 12 -15 12 -8 28 -13 35 -10 8 3
26 -5 41 -19 15 -14 27 -22 27 -17 0 9 31 8 46 -2 15 -9 5 -57 -12 -64 -22 -8
-17 -20 11 -27 14 -4 25 -11 25 -17 0 -6 4 -8 8 -5 4 2 14 1 22 -5 9 -5 10 -9
3 -9 -6 0 -9 -9 -6 -20 5 -19 14 -24 38 -21 19 2 37 -39 25 -54 -6 -7 -7 -15
-3 -17 18 -9 73 -9 73 0 0 5 11 7 25 4 17 -3 25 0 23 8 -2 7 3 15 10 17 7 3
12 -3 12 -14 0 -14 2 -15 9 -4 11 17 32 6 25 -13 -3 -8 7 -18 25 -26 17 -7 31
-17 31 -22 0 -5 4 -7 9 -4 4 3 7 -5 6 -18 -2 -16 3 -26 15 -29 23 -6 30 0 30
25 0 24 25 23 49 -3 10 -11 27 -22 37 -23 11 -2 20 -9 20 -17 1 -8 2 -19 3
-26 0 -6 10 -10 21 -8 11 2 20 1 20 -3 0 -15 48 -30 59 -19 8 8 11 5 11 -11 0
-15 6 -22 18 -22 10 0 22 -4 28 -8 5 -5 22 -14 38 -21 26 -11 28 -11 16 4 -7
8 -11 17 -9 19 8 9 89 -35 89 -48 0 -9 8 -12 25 -8 14 2 25 9 25 14 0 6 6 5
15 -2 8 -7 13 -15 11 -19 -2 -3 7 -7 20 -7 21 -2 28 5 26 26 0 3 7 6 17 7 10
1 22 -10 29 -27 9 -21 18 -27 32 -23 11 3 20 9 20 14 0 5 14 2 30 -6 17 -9 35
-13 40 -10 5 3 7 -1 4 -9 -3 -8 3 -19 15 -26 12 -6 21 -8 21 -5 0 3 8 2 17 -3
11 -7 24 -5 38 4 12 8 35 12 51 10 32 -4 86 -24 68 -25 -7 -1 -9 -12 -6 -26 3
-20 7 -23 18 -14 11 9 14 8 14 -1 0 -9 4 -9 17 1 15 12 16 12 8 -1 -7 -12 -6
-13 7 -3 8 7 17 10 21 7 3 -3 15 -1 26 6 12 6 21 7 21 1 0 -5 11 -8 25 -6 14
1 25 -1 25 -5 0 -11 49 -9 56 1 3 5 9 7 14 4 4 -3 6 3 3 14 -3 12 2 20 16 24
15 4 19 10 14 23 -7 20 8 14 43 -18 12 -10 32 -21 45 -23 13 -3 35 -7 48 -10
13 -2 32 0 42 6 13 6 19 6 20 -1 1 -5 3 -14 4 -20 1 -5 3 -13 4 -17 1 -5 6 0
11 9 7 11 19 15 35 12 14 -2 25 -1 25 3 0 5 11 20 24 35 14 14 22 29 18 33 -4
4 -2 5 3 4 6 -2 19 2 31 8 11 7 26 8 34 3 7 -4 19 -6 27 -3 7 3 13 0 13 -6 0
-14 37 -15 45 -1 4 6 10 8 15 5 5 -3 11 -1 15 5 4 6 12 7 18 3 16 -10 41 -10
48 0 8 11 39 -3 39 -19 0 -10 -11 -12 -39 -9 -49 4 -70 -14 -43 -38 23 -21
100 -28 88 -8 -3 5 19 3 50 -6 31 -8 57 -13 59 -11 4 4 8 48 6 65 -1 7 -8 10
-16 7 -10 -4 -15 0 -15 10 0 20 32 35 38 18 3 -9 9 -9 24 -1 11 6 30 8 43 5
13 -3 27 -2 30 4 4 7 12 7 24 0 10 -5 20 -8 22 -6 2 2 18 6 34 10 24 5 26 4
13 -4 -20 -12 -24 -40 -7 -40 5 0 7 -5 3 -11 -3 -6 8 -4 24 5 17 9 34 21 37
27 5 7 16 2 33 -13 14 -13 22 -17 18 -10 -4 7 -1 12 8 12 9 0 16 5 16 11 0 5
5 7 10 4 6 -3 10 -1 10 4 0 6 -4 11 -10 11 -15 0 -12 27 4 33 7 3 19 0 25 -6
7 -7 11 -7 11 -1 0 6 6 11 13 11 6 0 17 2 22 3 19 5 35 0 35 -11 0 -5 -4 -7
-10 -4 -5 3 -10 1 -10 -5 0 -6 -4 -9 -9 -6 -5 3 -15 -2 -22 -11 -10 -12 -10
-14 -1 -9 6 4 12 3 12 -2 0 -10 89 -8 133 2 17 4 26 3 23 -3 -4 -5 7 -6 27 -2
17 4 34 8 37 8 3 0 16 4 29 8 24 7 24 8 6 21 -15 11 -16 17 -7 26 8 8 15 9 20
3 4 -6 24 -11 46 -13 33 -2 38 0 32 14 -6 15 -4 15 11 3 10 -8 24 -19 31 -26
14 -13 45 -6 36 8 -3 5 2 16 10 25 14 13 17 13 22 1 7 -19 70 -6 66 14 -1 10
2 9 11 -3 8 -10 17 -15 21 -11 4 4 11 1 16 -7 8 -13 12 -12 24 5 15 20 15 20
11 -2 -2 -15 1 -20 13 -18 9 1 16 8 15 14 -2 6 9 13 25 17 52 11 83 23 112 44
32 23 97 33 104 16 3 -7 5 -6 5 2 1 6 8 12 17 12 10 0 14 -6 10 -15 -8 -21 33
-20 64 2 14 10 26 17 28 15 7 -7 22 0 17 8 -3 6 -3 10 2 11 4 0 16 2 26 4 9 2
17 -1 17 -6 0 -5 15 -1 34 9 19 9 32 20 29 25 -4 6 12 11 30 8 4 -1 18 4 30
11 12 7 27 12 32 13 6 0 19 5 30 12 11 6 36 14 55 18 42 8 74 30 65 44 -4 7 6
11 27 11 53 -1 78 4 78 13 0 4 4 6 9 3 5 -3 11 0 14 8 3 7 19 16 35 19 16 3
37 13 45 22 9 8 25 15 35 15 11 0 22 5 24 11 2 5 12 11 23 13 12 2 20 11 20
22 0 10 5 19 12 19 6 0 23 10 37 22 15 13 31 23 38 23 6 0 9 3 5 6 -13 13 37
46 76 50 23 3 47 11 53 19 6 8 15 11 19 7 5 -4 5 -2 1 5 -6 10 50 63 67 63 3
0 18 11 33 25 15 14 24 25 20 25 -4 0 17 20 46 45 29 25 57 50 62 54 34 36 46
53 41 61 -4 6 5 10 18 10 24 0 124 85 120 101 -2 4 6 11 17 14 11 4 20 13 20
21 0 9 14 27 31 41 16 14 28 32 25 39 -3 7 4 16 15 19 10 4 19 12 19 18 0 7
14 23 30 37 17 14 30 30 30 37 0 7 23 36 51 65 28 29 59 62 69 73 10 11 24 33
29 48 6 16 15 25 21 22 9 -6 14 8 11 28 0 4 5 7 12 7 24 0 101 109 102 144 0
11 6 20 13 18 6 -1 12 2 12 8 0 5 8 18 18 28 10 10 33 40 52 67 19 28 37 52
40 55 3 3 6 13 8 24 2 10 9 25 15 33 24 29 79 83 94 91 13 8 13 13 3 32 -9 16
-9 25 -1 33 6 6 11 19 11 28 0 10 9 21 20 24 11 4 17 11 14 17 -5 7 -2 8 5 3
8 -4 20 1 32 14 10 11 26 18 34 15 8 -4 15 -2 16 2 4 50 13 69 32 69 7 0 19
15 27 32 11 23 22 33 39 33 17 0 22 4 17 16 -4 10 0 18 12 21 10 2 24 19 32
36 7 18 31 52 52 76 21 25 37 50 34 57 -3 7 2 15 10 18 8 3 13 9 12 13 -1 4 5
22 13 38 8 17 15 37 14 45 -1 8 4 21 9 29 9 12 8 13 -4 6 -11 -7 -11 -2 3 19
14 21 16 30 6 42 -9 11 -8 14 5 14 14 0 23 19 30 65 1 10 11 22 22 26 10 4 13
8 5 8 -11 1 -11 4 -1 16 7 8 9 15 5 15 -4 0 -2 7 5 15 7 9 10 18 7 22 -4 3 -2
12 3 18 17 20 29 102 17 114 -8 8 -7 11 2 11 8 0 10 7 6 20 -5 14 -2 20 9 20
20 0 20 14 1 34 -19 19 -19 26 1 41 15 10 15 13 -2 29 -11 12 -14 20 -7 24 16
10 11 62 -6 62 -10 0 -9 5 5 18 21 18 21 61 0 74 -7 5 -3 8 9 9 12 0 15 3 7 6
-10 4 -9 9 4 24 9 10 13 19 8 19 -9 0 -9 21 -1 103 2 20 0 37 -4 37 -9 0 -5
56 5 81 4 9 8 27 10 40 2 13 6 31 9 39 7 20 21 93 19 102 -1 4 3 20 10 35 15
37 20 83 8 83 -11 0 -4 38 11 56 6 7 9 19 6 26 -2 7 -1 23 4 34 5 14 2 29 -7
42 -9 13 -10 22 -3 24 13 4 20 58 7 58 -5 0 -7 4 -4 9 4 5 2 11 -4 13 -5 1
-17 30 -25 63 -9 33 -23 75 -31 93 -9 18 -13 39 -11 46 3 6 -1 20 -8 30 -8 10
-11 24 -8 32 3 8 -2 21 -12 28 -10 7 -19 26 -21 41 -3 29 -42 115 -58 126 -5
4 -5 12 -2 18 4 6 2 11 -4 11 -6 0 -10 8 -8 18 2 13 -3 16 -19 14 -13 -2 -23
2 -23 9 0 7 -3 9 -6 6 -10 -9 -46 12 -39 23 3 5 1 19 -5 30 -8 15 -8 20 3 20
16 0 20 42 4 52 -9 6 -9 8 0 8 16 0 11 25 -10 48 -9 10 -14 22 -10 25 3 4 -6
7 -21 7 -29 0 -47 27 -26 40 13 8 -16 42 -131 147 -19 17 -45 43 -58 57 -19
22 -43 32 -53 24 -2 -1 -23 17 -47 40 -24 23 -48 42 -53 42 -5 0 -6 5 -2 12 4
6 3 8 -4 4 -6 -3 -14 0 -19 8 -4 8 -11 15 -15 16 -39 9 -48 14 -44 26 4 9 -2
14 -15 14 -12 0 -38 14 -59 30 -21 17 -41 30 -45 30 -11 0 -35 28 -35 40 0 7
-6 10 -14 7 -8 -3 -23 3 -34 14 -12 10 -28 16 -36 13 -9 -3 -16 -1 -16 6 0 6
-5 8 -10 5 -6 -4 -9 -2 -8 3 4 12 -58 70 -84 78 -10 3 -18 9 -18 14 0 4 -9 6
-20 3 -12 -3 -20 -2 -19 3 4 24 -2 44 -15 44 -8 0 -16 7 -20 15 -3 8 -10 14
-15 13 -5 -2 -10 2 -10 7 -1 6 7 11 19 13 11 2 18 8 15 13 -4 5 1 9 9 9 9 0
16 4 16 9 0 19 -20 21 -55 7 -19 -8 -35 -11 -35 -6 0 5 9 12 21 15 13 4 18 12
15 22 -3 8 -6 19 -6 24 0 5 -7 9 -15 9 -8 0 -15 5 -15 10 0 6 -5 10 -11 10 -5
0 -7 -5 -3 -11 4 -7 1 -10 -7 -7 -8 3 -14 14 -13 26 0 16 -5 20 -25 19 -16 -1
-25 3 -23 11 1 6 -5 12 -13 12 -8 0 -15 6 -15 13 0 7 -10 24 -22 37 -13 14
-22 27 -20 30 1 3 -2 5 -8 4 -5 -1 -17 -2 -25 -2 -17 -2 -17 -32 0 -44 6 -5 6
-8 -2 -8 -6 0 -15 4 -18 10 -3 6 -15 10 -25 10 -20 0 -29 16 -22 42 5 22 31
31 38 14 5 -12 9 -12 25 2 15 13 16 19 6 31 -7 9 -21 31 -31 50 -17 30 -17 34
-3 28 10 -4 17 -1 17 6 0 7 15 13 38 13 37 1 83 15 132 39 14 7 33 11 43 10 9
-2 17 1 17 7 0 6 6 8 14 5 7 -3 19 0 25 6 6 6 11 7 11 3 0 -5 7 -3 15 4 8 7
15 9 15 6 0 -4 10 -1 22 5 12 7 38 12 56 11 19 -1 51 7 73 18 21 11 42 20 46
19 5 -1 10 0 13 1 3 1 19 4 35 6 17 3 31 8 32 12 2 4 21 6 43 6 22 -1 40 2 40
8 0 5 9 6 20 3 12 -4 26 0 36 9 17 18 39 22 29 5 -5 -7 -2 -7 11 0 47 26 99
44 128 46 17 1 42 6 56 12 33 14 94 33 120 38 12 2 30 7 41 10 10 4 31 8 47
10 15 1 26 8 24 14 -1 7 3 11 10 10 7 -2 32 3 56 10 23 6 50 11 60 9 11 -2 17
3 16 14 -1 15 6 17 47 13 32 -2 51 1 59 10 6 7 20 11 30 8 11 -3 20 -1 20 4 0
5 6 10 13 11 64 7 115 16 137 24 50 20 80 26 80 17 0 -6 7 -4 15 5 9 8 32 18
53 21 20 4 53 12 72 18 19 6 44 11 55 11 11 1 27 5 35 11 8 5 23 8 33 7 9 -2
17 1 17 6 0 6 9 8 20 5 12 -3 20 0 20 6 0 7 5 9 10 6 6 -3 10 -1 10 6 0 7 3 9
7 6 3 -4 17 0 31 9 13 8 26 13 29 10 3 -3 18 3 33 14 16 11 33 20 39 20 6 0
11 3 11 8 0 7 71 44 98 50 10 2 29 5 43 7 14 1 39 9 55 17 19 10 40 12 62 8
23 -6 37 -3 47 7 9 8 15 10 15 3 0 -7 7 -7 23 2 22 12 28 14 47 17 6 0 9 6 8
12 -2 7 11 13 27 15 81 8 98 12 116 27 24 21 89 48 99 42 4 -2 15 4 24 14 17
18 17 20 -3 40 -12 12 -29 21 -38 21 -15 0 -14 2 2 14 11 8 24 11 30 8 15 -9
69 -2 77 11 4 7 12 6 23 -3 12 -10 18 -11 24 -2 5 8 17 9 38 3 17 -5 34 -7 36
-4 5 4 118 32 145 35 6 1 12 5 12 10 0 5 5 6 11 2 14 -8 29 14 29 44 0 14 6
22 18 22 10 0 28 7 41 16 17 12 20 19 11 28 -6 6 -16 11 -22 11 -5 0 -11 19
-13 43 -2 23 1 42 6 42 5 0 9 7 9 15 0 7 7 18 15 23 17 9 27 45 18 67 -6 17
-55 20 -82 6 -21 -12 -86 -22 -171 -27 -81 -5 -175 -13 -175 -14 0 -3 -43 -9
-100 -13 -33 -3 -67 -8 -76 -12 -19 -7 -48 23 -32 33 14 9 10 52 -7 62 -7 4
-25 4 -40 0 -15 -4 -38 -6 -52 -3 -14 3 -29 0 -32 -6 -4 -6 -18 -11 -32 -11
-14 0 -22 -4 -19 -10 3 -5 0 -7 -9 -4 -8 3 -30 1 -49 -5 -40 -14 -64 -18 -121
-25 -23 -3 -49 -8 -57 -11 -7 -3 -27 -7 -44 -9 -16 -2 -54 -9 -83 -16 -29 -7
-56 -9 -59 -6 -11 11 -4 69 9 77 8 5 9 9 2 9 -6 0 -11 10 -10 23 1 19 -3 22
-33 19 -18 -2 -31 0 -28 5 3 5 -8 9 -25 8 -17 0 -33 6 -35 13 -3 6 2 12 11 12
9 0 16 5 16 10 0 10 -14 14 -38 11 -8 -1 -19 2 -26 8 -8 7 -25 7 -52 0 -34
-10 -54 -22 -111 -70 -7 -5 -13 -6 -13 -2 0 4 -5 2 -12 -5 -7 -7 -24 -12 -39
-12 -15 0 -29 -3 -31 -8 -1 -4 -50 -22 -108 -40 -58 -19 -115 -38 -127 -44
-12 -6 -41 -12 -65 -13 -24 -1 -56 -8 -73 -15 -45 -19 -167 -52 -190 -51 -11
0 -29 -9 -41 -20 -12 -11 -40 -23 -63 -26 -23 -3 -41 -9 -41 -14 0 -5 -11 -3
-25 3 -19 8 -34 8 -62 -1 -21 -7 -45 -13 -53 -14 -8 -2 -19 -5 -25 -9 -5 -3
-26 -9 -45 -14 -19 -4 -38 -9 -42 -10 -5 -1 -12 -2 -17 -3 -5 0 -17 -8 -25
-16 -12 -12 -20 -13 -34 -6 -11 6 -22 8 -25 4 -3 -3 -19 -6 -35 -8 -15 -1 -45
-8 -66 -15 -20 -6 -59 -13 -85 -15 -27 -2 -67 -6 -90 -10 -23 -4 -65 -8 -94
-10 -28 -2 -52 -5 -52 -6 0 0 -11 -2 -25 -4 -63 -7 -127 -17 -145 -22 -11 -3
-31 -7 -45 -9 -90 -10 -124 -14 -181 -24 -35 -7 -72 -12 -82 -11 -10 0 -35 -6
-55 -12 -20 -7 -50 -12 -67 -12 -16 0 -33 -4 -36 -8 -9 -13 -76 -16 -76 -3 -1
6 -6 26 -11 44 -6 17 -8 32 -6 32 3 0 -2 7 -10 16 -9 8 -17 23 -17 32 -3 45
-9 73 -18 90 -6 11 -13 34 -17 53 -8 45 -12 63 -14 67 -2 1 -3 5 -5 10 -1 4
-5 15 -9 24 -5 10 -9 30 -9 45 -1 16 -6 31 -10 34 -5 4 -10 18 -10 33 -1 14
-6 26 -11 26 -4 0 -6 6 -3 14 3 7 0 22 -7 32 -7 11 -13 26 -14 34 -2 32 -9 66
-16 78 -4 7 -2 12 6 12 8 0 9 3 3 8 -5 4 -12 16 -13 27 -2 11 -8 25 -13 32 -7
7 -6 14 1 18 6 4 7 12 1 23 -5 10 -10 37 -12 62 -1 25 -8 54 -15 64 -11 16
-10 22 4 33 9 8 11 12 5 8 -12 -6 -16 13 -16 78 0 9 -3 17 -7 17 -4 0 -8 10
-8 23 0 12 -2 38 -6 57 -4 19 -8 46 -9 60 -1 14 -6 28 -12 32 -6 5 -5 8 4 8 9
0 10 4 4 13 -6 6 -9 24 -8 40 1 15 -2 27 -7 27 -4 0 -8 16 -8 35 0 26 -4 35
-17 36 -10 0 -13 3 -7 5 7 3 9 18 4 44 -4 22 -5 40 -2 40 2 0 -1 6 -7 13 -6 8
-8 17 -4 20 3 4 1 7 -5 7 -6 0 -9 9 -7 20 2 11 0 20 -4 20 -4 0 -8 15 -9 33
-1 18 -8 51 -16 75 -8 23 -13 42 -9 42 3 0 -1 7 -8 17 -8 9 -13 18 -11 20 7
10 0 54 -11 65 -8 7 -13 23 -12 36 1 12 -1 22 -5 22 -3 0 -7 17 -8 37 -2 20
-7 42 -12 48 -8 10 -9 21 -12 98 0 20 -4 37 -8 37 -4 0 -7 7 -7 15 0 8 3 15 7
15 10 0 6 29 -7 61 -14 32 -25 92 -27 141 0 20 -4 34 -8 31 -5 -2 -8 5 -8 17
0 12 -5 30 -10 40 -7 13 -7 21 0 25 7 4 7 12 0 25 -7 13 -7 21 1 26 8 5 7 10
-4 16 -9 5 -14 15 -11 22 3 8 -3 16 -15 19 -12 3 -19 1 -15 -4 12 -20 -8 -30
-26 -12 -13 14 -15 21 -6 32 8 11 8 15 -1 18 -8 3 -10 15 -7 32 4 21 1 30 -11
35 -10 3 -15 12 -11 21 3 8 1 15 -5 15 -6 0 -7 5 -4 10 3 6 1 10 -6 10 -8 0
-9 4 -1 13 9 10 7 19 -4 35 -8 12 -12 22 -8 22 3 0 2 6 -4 13 -6 7 -13 40 -14
73 -2 32 -6 61 -10 64 -4 3 -9 15 -11 25 -1 11 -6 25 -9 31 -4 6 -9 22 -12 37
-2 15 -8 32 -11 37 -4 6 -7 41 -7 78 0 37 -5 73 -10 80 -7 8 -7 12 0 12 7 0 4
21 -8 55 -10 30 -16 55 -13 55 3 0 -1 8 -8 17 -10 11 -10 14 -1 9 8 -5 12 0
12 13 0 12 5 21 10 21 12 0 0 16 -39 55 -14 13 -26 37 -27 52 -5 66 -14 96
-31 109 -10 7 -21 14 -25 14 -4 0 -6 13 -4 29 2 19 -2 32 -11 35 -11 4 -11 10
-3 26 8 15 6 29 -10 60 -11 22 -18 45 -15 50 3 6 3 10 -2 10 -8 0 -9 2 -16
120 -3 41 -6 77 -7 80 -1 3 -2 9 -1 14 1 5 -3 13 -10 17 -23 14 -28 107 -6
122 9 7 9 10 0 14 -19 7 -16 23 5 23 12 1 8 6 -12 17 -26 13 -27 17 -12 25 9
5 14 13 11 19 -4 5 -2 9 3 9 14 0 11 33 -5 51 -8 9 -15 26 -16 38 -1 11 -5 21
-9 21 -4 0 -7 6 -6 12 2 7 -4 13 -12 13 -8 0 -18 5 -23 10 -4 6 -13 2 -23 -10
-16 -22 -18 -22 -38 -3 -12 11 -12 14 1 21 12 8 12 12 -1 32 -9 14 -16 33 -16
44 0 11 -8 27 -17 37 -26 26 -43 63 -32 69 13 9 11 19 -8 41 -25 26 -45 84
-30 84 6 0 2 7 -9 15 -10 8 -14 15 -9 14 25 -3 37 2 32 15 -3 8 -1 16 6 19 7
2 4 14 -10 33 -11 16 -18 34 -16 40 2 6 -7 22 -19 36 -23 25 -36 84 -16 72 6
-4 6 1 -1 14 -12 22 -1 36 29 37 21 0 27 55 6 55 -9 0 -15 3 -15 8 4 21 -3 32
-20 32 -11 0 -21 -5 -23 -11 -9 -27 -34 20 -32 57 2 22 -2 41 -9 46 -9 6 -8 8
3 8 13 0 13 1 0 10 -19 12 -8 22 14 14 9 -4 15 -12 12 -19 -2 -7 1 -23 8 -36
13 -26 16 -34 16 -49 0 -5 6 -7 14 -4 16 6 12 56 -5 62 -5 2 -5 11 2 23 7 14
6 21 -3 24 -8 3 -13 21 -12 45 0 22 -3 40 -8 40 -5 0 -7 4 -3 9 3 5 1 12 -4
15 -5 3 -7 26 -6 51 2 25 -1 47 -5 50 -5 3 -7 14 -5 25 2 11 0 22 -5 25 -4 3
-7 16 -5 30 1 14 -1 25 -5 25 -8 0 -25 87 -21 104 1 5 -5 16 -14 26 -9 10 -18
30 -21 46 -3 16 -8 31 -12 34 -4 3 -7 21 -7 40 0 19 -4 41 -9 48 -5 7 -10 24
-10 38 -1 14 -8 29 -16 34 -13 8 -13 10 -1 10 11 0 10 4 -3 19 -11 12 -18 38
-20 69 -1 27 -9 61 -19 76 -18 27 -18 28 1 33 23 6 21 42 -3 80 -13 19 -13 24
1 37 8 9 12 16 8 16 -3 0 -2 6 4 13 13 16 9 62 -8 82 -10 12 -10 15 0 15 9 0
10 3 1 13 -6 8 -8 17 -4 20 3 4 1 7 -6 7 -7 0 -9 5 -6 10 3 6 1 10 -6 10 -7 0
-9 3 -6 7 4 3 0 17 -8 30 -9 13 -12 23 -8 23 4 0 -2 7 -14 15 -13 9 -20 22
-17 30 4 9 0 15 -9 15 -12 0 -26 33 -31 75 -1 5 -12 12 -26 15 -15 3 -31 18
-40 37 -8 18 -19 33 -25 33 -14 1 -45 70 -32 70 8 0 7 4 0 11 -6 6 -9 18 -6
25 3 8 0 14 -7 14 -8 0 -9 4 -4 13 11 15 11 67 1 84 -5 7 -10 21 -12 30 -2 10
-6 26 -10 36 -5 11 -2 17 6 17 10 0 10 3 1 12 -7 7 -12 22 -12 34 0 13 -4 25
-9 28 -10 6 -7 57 3 75 10 16 -19 42 -38 35 -12 -5 -16 1 -16 25 0 17 -5 31
-11 31 -5 0 -8 4 -5 9 5 8 -74 24 -82 16 -2 -1 -4 -12 -5 -24 -2 -24 -22 -27
-43 -6 -12 11 -12 19 -4 35 6 11 9 20 8 21 -31 9 -59 7 -71 -6 -21 -21 -24
-20 -37 20 -6 19 -16 35 -21 35 -6 0 -8 4 -5 9 9 14 -13 18 -112 20 -87 2 -94
1 -99 -18z m22 -861 c0 -14 8 -36 17 -49 9 -13 25 -48 34 -78 9 -29 20 -53 23
-53 4 0 8 -10 8 -22 2 -32 7 -49 21 -75 7 -13 9 -23 5 -23 -4 0 -2 -5 5 -12 7
-7 12 -24 12 -40 0 -15 11 -57 25 -94 14 -36 22 -70 19 -75 -3 -5 -1 -9 4 -9
9 0 12 -13 14 -70 1 -24 10 -42 31 -61 16 -15 25 -29 19 -33 -9 -6 15 -92 38
-136 8 -14 8 -20 1 -16 -5 4 -4 -6 4 -20 8 -15 12 -31 9 -36 -3 -4 -1 -8 4 -8
9 0 10 -5 16 -60 1 -19 6 -42 10 -51 4 -8 8 -29 9 -45 1 -16 5 -32 9 -35 5 -3
9 -17 10 -32 1 -15 5 -27 9 -27 10 0 22 -48 31 -117 1 -7 4 -13 8 -13 3 0 6
-8 7 -19 1 -10 7 -38 14 -62 7 -24 12 -48 10 -53 -1 -4 3 -14 9 -21 5 -6 12
-27 14 -46 2 -18 9 -35 14 -37 6 -2 8 -10 5 -19 -4 -10 -2 -14 4 -10 5 3 10 0
10 -8 0 -8 -5 -15 -11 -15 -6 0 -3 -5 7 -11 14 -8 16 -14 6 -25 -9 -11 -9 -14
1 -14 8 0 11 -3 8 -6 -4 -3 -2 -20 4 -37 5 -18 10 -37 12 -44 1 -7 5 -16 9
-19 4 -4 7 -20 7 -36 0 -15 5 -28 12 -28 9 0 9 -3 1 -11 -11 -11 -5 -38 24
-107 8 -18 11 -37 7 -43 -4 -6 -2 -14 5 -18 6 -4 12 -27 14 -52 2 -25 7 -51
11 -57 4 -7 2 -12 -4 -12 -6 0 -8 -4 -5 -10 10 -17 34 -116 37 -154 1 -20 5
-36 9 -36 4 0 7 -21 7 -47 0 -64 6 -104 21 -131 7 -13 10 -30 7 -39 -3 -8 -1
-24 6 -36 7 -12 13 -40 14 -62 4 -61 13 -108 24 -119 6 -6 5 -16 -2 -29 -5
-11 -6 -22 -2 -26 5 -3 10 -15 10 -26 3 -42 13 -88 21 -94 4 -3 8 -17 7 -31 0
-14 4 -33 9 -44 7 -14 6 -17 -5 -10 -10 6 -11 5 -1 -7 7 -9 8 -20 3 -29 -5 -8
-6 -19 -2 -25 3 -5 8 -19 9 -30 2 -10 8 -22 12 -25 5 -3 12 -21 14 -40 3 -19
6 -35 7 -35 1 0 3 -10 4 -22 2 -13 -2 -23 -8 -23 -6 0 -1 -7 11 -15 14 -10 21
-25 21 -49 0 -19 4 -41 8 -48 5 -7 9 -15 10 -18 0 -3 4 -17 8 -31 4 -14 9 -34
11 -45 2 -10 4 -19 6 -19 1 0 3 -24 4 -54 2 -39 7 -58 20 -68 24 -17 27 -40 7
-48 -12 -4 -13 -8 -5 -13 13 -8 24 -62 27 -124 0 -21 5 -38 9 -38 5 0 7 -14 5
-30 -2 -18 3 -34 11 -39 7 -5 10 -14 7 -20 -4 -6 0 -11 11 -11 17 -1 17 -2 -1
-15 -11 -8 -14 -15 -8 -15 7 0 12 -12 12 -27 0 -41 5 -87 12 -98 3 -6 5 -29 4
-53 -1 -23 2 -42 7 -42 5 0 7 -7 3 -15 -3 -8 -2 -15 2 -15 4 0 9 -15 11 -32 4
-43 9 -73 11 -73 1 0 4 -20 7 -45 2 -25 5 -53 6 -62 1 -10 4 -18 7 -18 4 0 7
-6 7 -12 3 -51 8 -88 13 -88 3 0 6 -17 8 -37 2 -45 6 -65 13 -78 4 -5 7 -23 8
-40 2 -33 8 -79 11 -82 2 -2 4 -7 5 -13 1 -5 4 -13 5 -17 1 -5 2 -23 2 -40 0
-18 4 -33 8 -33 5 0 7 -26 6 -57 -1 -32 2 -67 8 -78 5 -11 10 -28 11 -38 1
-11 6 -22 11 -25 5 -4 10 -20 11 -37 2 -42 6 -59 18 -67 7 -5 7 -8 0 -8 -12 0
-12 -71 0 -112 4 -16 12 -28 17 -28 6 0 7 -11 4 -25 -4 -14 -2 -25 4 -25 5 0
9 -3 8 -7 -1 -5 2 -26 7 -48 4 -22 7 -46 6 -52 -1 -7 2 -13 7 -13 5 0 10 -10
10 -22 0 -29 5 -52 13 -58 4 -3 9 -27 12 -53 4 -27 10 -54 15 -60 5 -7 12 -30
16 -52 3 -22 9 -53 12 -70 4 -16 7 -38 8 -47 0 -10 4 -18 8 -18 4 0 5 -7 2
-15 -4 -8 -2 -15 4 -15 6 0 8 -9 5 -20 -3 -11 1 -28 8 -37 12 -14 12 -15 1 -9
-12 7 -12 4 -1 -15 7 -13 14 -40 16 -59 2 -19 5 -43 6 -52 0 -10 4 -18 7 -18
8 0 10 -10 13 -67 1 -24 6 -43 11 -43 6 0 5 -5 -2 -12 -8 -8 -8 -15 -2 -23 6
-7 12 -32 13 -57 2 -24 6 -48 9 -54 4 -6 5 -19 4 -30 -2 -10 0 -27 5 -36 6
-11 5 -18 -4 -22 -8 -3 -6 -10 8 -23 22 -20 58 -73 50 -73 -3 0 0 -10 6 -22 7
-13 13 -33 14 -46 0 -13 7 -27 15 -32 10 -7 11 -10 2 -10 -6 0 -11 -3 -11 -7
4 -23 -4 -31 -26 -28 -14 1 -27 -1 -30 -5 -6 -9 -72 -5 -120 9 -50 14 -68 14
-60 1 6 -10 -7 -14 -32 -11 -7 1 -13 -3 -13 -9 0 -15 -16 -12 -34 5 -14 14
-17 14 -28 -4 -9 -15 -15 -17 -25 -9 -7 6 -13 7 -13 4 0 -4 -8 -2 -18 3 -12 6
-23 5 -36 -4 -10 -8 -24 -11 -32 -8 -8 3 -14 0 -14 -7 0 -7 -7 -10 -15 -6 -8
3 -21 -2 -30 -10 -8 -8 -38 -17 -67 -20 -29 -2 -62 -6 -73 -8 -11 -2 -25 1
-31 5 -7 6 -16 3 -24 -6 -7 -8 -19 -15 -26 -15 -8 0 -22 -4 -32 -9 -49 -25
-112 -46 -126 -43 -4 2 -15 -3 -23 -9 -19 -16 -136 -20 -145 -5 -6 8 -8 8 -8
-1 0 -11 -55 -29 -73 -25 -4 1 -21 -5 -37 -13 -16 -9 -33 -15 -37 -15 -5 0 -8
-9 -8 -20 0 -22 -34 -44 -84 -55 -17 -4 -33 -11 -36 -16 -4 -5 -17 -9 -29 -9
-13 0 -29 -6 -35 -14 -7 -8 -24 -17 -39 -21 -15 -4 -40 -13 -57 -20 -81 -36
-125 -53 -125 -49 0 3 -10 -5 -22 -16 -12 -11 -28 -18 -35 -15 -8 2 -22 -4
-33 -15 -11 -11 -23 -20 -27 -20 -18 0 -49 -14 -65 -28 -10 -8 -18 -12 -18 -9
0 4 -21 -6 -47 -22 -27 -16 -58 -32 -70 -36 -13 -3 -23 -11 -23 -16 0 -5 -7
-9 -15 -9 -7 0 -19 -8 -24 -17 -6 -10 -11 -15 -11 -11 0 10 -104 -45 -127 -67
-16 -16 -18 -17 -21 -2 -3 16 -42 20 -42 4 0 -5 -8 -6 -17 -3 -17 6 -17 5 0
-8 9 -7 17 -16 17 -18 0 -10 -40 -16 -45 -7 -6 9 -55 -10 -55 -22 0 -4 -9 -7
-20 -6 -11 1 -20 5 -20 10 0 4 -4 5 -10 2 -5 -3 -10 -2 -10 3 0 6 -9 8 -20 5
-11 -3 -20 -12 -20 -19 0 -15 -16 -19 -24 -5 -3 4 -16 7 -28 5 -67 -8 -103
-17 -106 -25 -2 -5 -11 -9 -20 -9 -21 0 -105 -29 -112 -38 -3 -4 -32 -16 -65
-27 -33 -11 -68 -28 -78 -38 -10 -10 -21 -16 -24 -13 -4 3 -26 -5 -49 -19 -24
-14 -46 -25 -49 -25 -27 1 -35 -2 -35 -15 0 -8 -6 -12 -14 -9 -7 3 -20 -1 -27
-8 -8 -8 -45 -22 -83 -32 -54 -15 -72 -25 -84 -46 -9 -15 -29 -33 -46 -40 -17
-7 -36 -21 -43 -30 -8 -11 -23 -16 -40 -14 -15 1 -32 -1 -38 -6 -10 -8 -16
-10 -35 -10 -6 0 -9 -6 -8 -12 2 -7 -19 -20 -46 -29 -27 -9 -61 -23 -75 -32
-14 -8 -34 -13 -43 -12 -9 2 -19 -3 -22 -10 -3 -8 -24 -19 -48 -26 -24 -7 -47
-16 -53 -20 -8 -5 -68 -19 -110 -24 -5 -1 -23 -6 -38 -13 -16 -7 -33 -12 -39
-12 -5 0 -8 -7 -4 -15 4 -10 -1 -15 -15 -15 -11 0 -18 4 -15 9 8 12 -51 3 -84
-12 -14 -7 -25 -19 -25 -27 0 -9 -10 -15 -27 -15 -15 -1 -35 -9 -46 -18 -10
-9 -24 -17 -30 -17 -7 0 -12 -4 -12 -9 0 -9 -66 -26 -89 -22 -7 1 -10 -2 -7
-7 3 -6 -14 -18 -39 -28 -25 -9 -45 -21 -45 -25 0 -5 -9 -9 -20 -9 -11 0 -20
-6 -20 -12 0 -14 -59 -58 -77 -58 -7 0 -24 -5 -40 -11 -15 -7 -35 -13 -43 -14
-8 -1 -44 -12 -80 -25 -76 -26 -127 -31 -142 -13 -6 7 -8 13 -5 13 14 0 -42
114 -58 116 -9 1 -19 5 -22 7 -2 3 -16 -1 -31 -9 -30 -15 -38 -9 -45 41 -2 17
-7 37 -10 45 -4 8 -8 31 -9 50 -2 19 -6 38 -11 41 -4 3 -9 14 -12 25 -15 63
-23 93 -29 103 -7 11 -16 44 -19 72 -1 8 -11 35 -23 60 -18 39 -40 93 -48 124
-2 6 -6 17 -10 27 -4 9 -9 29 -10 45 -3 29 -11 53 -28 88 -5 12 -10 35 -10 52
-1 18 -5 31 -10 30 -5 -1 -11 21 -13 48 -2 28 -8 64 -13 82 -6 17 -8 34 -4 37
3 3 0 6 -6 6 -6 0 -11 8 -11 18 1 35 -8 71 -32 130 -5 13 -9 34 -9 47 0 13 -4
26 -10 30 -5 3 -7 12 -3 20 3 9 0 21 -6 29 -6 7 -8 16 -4 19 3 4 1 7 -5 7 -7
0 -11 3 -10 8 1 4 -3 17 -10 29 -6 12 -13 30 -15 40 -1 10 -5 23 -8 28 -7 12
-20 61 -24 90 -2 11 -10 34 -19 50 -9 17 -16 36 -16 43 0 7 -7 24 -16 37 -9
14 -12 25 -6 25 6 0 2 23 -9 53 -11 28 -22 62 -25 74 -2 12 -9 34 -14 48 -5
14 -8 25 -5 25 2 0 -3 16 -11 35 -8 19 -11 35 -8 35 4 0 2 6 -4 13 -6 6 -14
30 -18 52 -10 51 -11 54 -14 60 -1 3 -3 8 -5 13 -1 4 -7 21 -14 37 -7 17 -14
35 -15 40 -11 46 -50 163 -60 174 -9 12 -8 13 3 7 9 -6 9 -2 -2 15 -9 13 -18
36 -21 50 -2 15 -11 40 -18 55 -8 16 -13 37 -11 47 3 9 -1 17 -7 17 -6 0 -10
8 -8 18 3 21 -18 95 -42 142 -10 19 -23 58 -31 87 -7 29 -16 50 -21 47 -8 -5
-11 5 -11 39 0 9 -3 17 -7 17 -7 0 -39 68 -37 80 0 3 -6 16 -13 30 -8 14 -14
27 -15 30 0 3 -13 33 -28 68 -16 34 -25 67 -22 72 3 6 3 10 -2 10 -14 0 -31
68 -19 80 7 7 6 10 -4 10 -7 0 -10 3 -7 6 3 4 0 16 -8 27 -10 14 -11 24 -4 33
7 8 7 14 -1 19 -5 3 -10 16 -10 29 0 12 -5 27 -11 33 -6 6 -12 17 -13 24 -8
41 -19 69 -27 69 -5 0 -4 11 1 25 6 16 6 25 0 25 -6 0 -10 9 -10 19 0 11 -4
22 -8 25 -4 3 -14 28 -22 55 -7 28 -17 51 -20 51 -4 0 -7 6 -8 13 -3 38 -7 57
-12 57 -5 0 -33 57 -62 128 -7 17 -16 32 -20 32 -5 0 -8 8 -8 19 0 10 -8 29
-18 42 -24 33 -47 83 -58 132 -1 4 -3 9 -4 12 -1 3 -3 8 -4 13 -1 4 -13 41
-25 82 -13 41 -25 93 -27 115 -3 21 -9 42 -14 45 -5 3 -7 14 -6 25 2 11 -3 33
-11 48 -8 16 -16 41 -18 55 -1 15 -4 27 -5 27 -1 0 -3 10 -6 23 -2 12 -6 32
-8 45 -3 12 -5 22 -6 22 -4 0 -13 52 -14 77 -1 14 -4 24 -8 21 -5 -2 -9 1 -9
6 -2 17 -8 34 -30 89 -5 13 -9 34 -9 48 0 14 -5 35 -11 46 -6 11 -11 36 -11
54 0 19 -3 34 -7 34 -8 0 -35 85 -37 115 -1 11 -3 25 -4 30 -2 6 -4 15 -5 20
-1 6 -7 23 -13 38 -7 16 -12 33 -12 39 0 6 -7 20 -16 29 -9 10 -16 31 -16 46
0 15 -7 37 -14 48 -8 11 -14 26 -14 34 0 8 -11 38 -25 67 -14 30 -28 67 -32
84 -3 17 -10 33 -14 36 -5 3 -9 14 -9 25 0 11 -7 33 -15 49 -8 16 -17 39 -19
52 -3 13 -5 25 -6 28 -2 3 -2 9 -1 14 2 8 -7 28 -51 118 -4 10 -8 29 -8 42 0
14 -7 32 -16 41 -9 8 -13 22 -10 30 3 8 2 15 -2 15 -4 0 -18 35 -31 78 -13 42
-31 85 -39 95 -8 9 -12 17 -9 17 4 0 -9 25 -28 55 -20 30 -33 55 -29 55 4 0 1
6 -5 14 -6 7 -9 21 -5 30 3 9 1 16 -5 16 -6 0 -11 7 -11 16 0 14 7 15 38 10
66 -11 83 -15 110 -28 44 -21 222 -12 222 12 0 4 11 11 25 14 13 3 34 10 47
15 13 5 26 9 31 10 4 0 20 7 36 15 15 8 39 16 52 18 13 2 33 9 44 15 11 5 26
8 33 6 6 -3 12 0 12 6 0 6 10 9 23 7 12 -2 31 2 42 9 12 7 40 15 63 19 24 3
47 8 52 11 5 3 33 7 63 9 30 2 64 9 77 16 12 6 41 13 64 15 22 2 53 8 69 14
17 7 27 7 27 1 0 -11 39 -8 108 10 24 6 47 8 53 5 5 -4 9 -2 9 2 0 5 8 9 18
10 30 2 59 11 94 29 18 10 40 19 49 21 9 1 29 8 45 14 16 7 40 14 54 16 13 2
29 8 35 13 10 8 39 13 63 11 6 0 12 -14 12 -31 0 -27 9 -35 33 -31 4 1 10 -5
13 -13 4 -11 12 -12 37 -4 18 5 38 10 45 12 7 1 21 9 30 17 24 20 71 40 107
46 17 3 32 8 35 12 8 12 67 27 136 34 22 3 65 16 95 30 48 21 103 39 126 38 5
0 11 7 16 14 4 8 23 17 42 21 20 3 38 10 41 15 3 5 13 9 23 9 10 0 39 11 65
25 26 14 52 23 57 20 5 -4 9 -2 9 3 0 5 10 13 23 17 12 4 24 8 27 9 3 1 15 7
26 14 12 6 24 9 26 7 3 -3 22 2 44 11 77 32 89 36 114 39 14 2 39 9 55 16 17
7 32 13 35 14 3 1 19 8 35 15 17 7 36 12 43 11 7 -1 15 5 18 14 4 9 13 14 21
11 8 -3 21 0 29 8 8 8 40 24 71 36 32 11 72 27 88 35 17 7 42 17 58 20 15 4
27 11 27 17 0 5 5 6 10 3 6 -3 10 -1 10 4 0 6 7 11 14 11 8 0 49 15 90 34 42
19 76 33 76 30 0 -3 10 1 23 8 12 6 27 13 34 14 6 1 22 11 34 23 30 28 53 27
67 -3 7 -16 19 -25 34 -24 35 1 88 18 88 29 0 10 59 35 73 31 4 -1 7 5 7 14 0
17 38 53 57 54 6 0 36 13 66 30 29 16 69 32 88 35 19 3 44 13 56 21 12 7 30
14 40 14 22 1 55 25 46 33 -3 4 7 7 24 7 17 0 38 8 48 20 10 11 24 20 32 20 7
0 13 5 13 10 0 6 9 10 19 10 11 0 23 5 26 10 4 6 10 8 15 5 5 -3 11 -1 15 5 4
6 11 8 16 5 5 -4 9 -1 9 4 0 6 6 11 13 11 6 0 27 13 46 29 19 17 39 27 44 24
5 -3 24 10 41 28 17 19 40 36 51 37 11 2 22 7 25 11 3 3 23 15 45 26 22 11 41
23 43 27 2 4 31 22 64 40 33 17 62 38 65 45 3 7 10 13 16 13 17 0 117 52 117
61 0 5 3 8 8 7 14 -3 47 15 71 39 13 12 27 20 32 17 5 -3 9 -1 9 3 0 5 10 10
23 11 43 4 57 8 68 19 6 6 18 9 25 6 8 -3 14 -1 14 5 0 6 13 13 29 17 16 3 32
13 35 21 3 7 19 22 36 33 17 10 31 21 31 25 -2 18 1 25 18 45 11 13 17 29 14
38 -4 11 -1 14 13 11 12 -2 18 -12 19 -28z m919 -1073 c-1 -9 2 -17 8 -17 5 0
7 -4 3 -9 -3 -5 -1 -12 4 -16 6 -3 8 -12 4 -20 -3 -8 0 -15 7 -15 6 0 8 -4 5
-10 -3 -5 -13 -10 -21 -10 -8 0 -12 5 -9 10 3 6 2 10 -2 10 -5 0 -10 11 -11
25 -3 47 -5 55 -14 55 -4 0 -8 5 -8 11 0 6 8 9 18 7 9 -2 16 -11 16 -21z
m-6759 -1867 c-3 -5 0 -10 7 -10 10 0 9 -3 -2 -10 -9 -6 -17 -5 -22 3 -8 13
-1 27 13 27 6 0 7 -4 4 -10z m43 -265 c-3 -3 -9 2 -12 12 -6 14 -5 15 5 6 7
-7 10 -15 7 -18z m75 2 c-2 -4 -3 -10 -3 -15 0 -4 -16 -12 -35 -18 -40 -13
-48 1 -9 16 14 6 23 14 20 19 -4 5 2 8 11 7 10 -2 17 -6 16 -9z m47 -83 c0 -8
-4 -14 -10 -14 -5 0 -10 9 -10 21 0 11 5 17 10 14 6 -3 10 -13 10 -21z m6723
-868 c6 -14 -1 -26 -14 -26 -4 0 -7 9 -6 20 1 23 12 26 20 6z m17 -36 c0 -5
-7 -10 -16 -10 -8 0 -12 5 -9 10 3 6 10 10 16 10 5 0 9 -4 9 -10z m-6060
-1461 c0 -11 -4 -18 -9 -14 -6 3 -9 14 -8 25 2 24 17 15 17 -11z m44 -101 c17
-33 21 -58 8 -58 -8 0 -31 48 -37 79 -5 29 10 18 29 -21z m97 -361 c-10 -9
-11 -8 -5 6 3 10 9 15 12 12 3 -3 0 -11 -7 -18z m139 -367 c0 -5 -7 -10 -15
-10 -8 0 -15 5 -15 10 0 6 7 10 15 10 8 0 15 -4 15 -10z m7427 -5 c-2 -5 -15
-9 -28 -8 -13 1 -36 -2 -51 -7 -17 -6 -28 -5 -28 1 0 5 9 9 19 9 11 0 22 3 24
8 7 11 68 8 64 -3z m-243 -33 c3 -5 -1 -9 -9 -9 -8 0 -15 4 -15 9 0 4 4 8 9 8
6 0 12 -4 15 -8z m36 4 c0 -3 -4 -8 -10 -11 -5 -3 -10 -1 -10 4 0 6 5 11 10
11 6 0 10 -2 10 -4z m-105 -16 c16 -7 14 -8 -12 -7 -17 1 -29 5 -26 10 5 9 12
8 38 -3z m-108 -26 c-3 -3 -12 -4 -19 -1 -8 3 -5 6 6 6 11 1 17 -2 13 -5z
m-2102 -562 c13 -9 15 -52 2 -52 -5 0 -5 -6 2 -13 8 -10 7 -17 -1 -25 -9 -9
-9 -12 2 -12 9 0 8 -5 -5 -20 -10 -11 -22 -17 -26 -14 -5 3 -9 -2 -9 -10 0 -9
-9 -16 -20 -16 -11 0 -23 -1 -27 -2 -4 -2 -8 11 -10 27 -5 67 -9 81 -22 95
-12 12 -10 16 18 27 18 8 37 10 43 7 7 -4 8 -2 4 4 -8 13 32 17 49 4z m-214
-69 c13 -16 12 -17 -3 -4 -10 7 -18 15 -18 17 0 8 8 3 21 -13z m2410 -394
c-18 -7 -41 -1 -41 11 0 13 34 17 46 5 9 -7 8 -12 -5 -16z m564 -179 c3 -5 2
-10 -4 -10 -5 0 -13 5 -16 10 -3 6 -2 10 4 10 5 0 13 -4 16 -10z m122 -182
c-3 -8 -6 -5 -6 6 -1 11 2 17 5 13 3 -3 4 -12 1 -19z m43 -18 c0 -5 16 -14 35
-20 33 -11 46 -32 27 -44 -12 -7 -54 23 -47 35 3 5 0 7 -7 4 -7 -3 -18 6 -24
19 -9 20 -9 23 2 19 8 -3 14 -9 14 -13z m274 -235 c11 -8 26 -15 34 -15 16 0
41 -28 41 -45 0 -5 -6 -2 -13 8 -8 10 -17 18 -21 17 -11 -3 -65 22 -65 30 0 5
-8 11 -17 13 -15 4 -15 5 2 6 11 0 29 -6 39 -14z m151 -11 c14 -9 25 -23 25
-31 0 -11 -7 -9 -30 7 -46 33 -41 54 5 24z m-2720 -62 c-3 -3 -11 0 -18 7 -9
10 -8 11 6 5 10 -3 15 -9 12 -12z m261 -32 c6 -6 35 -10 65 -10 29 0 61 0 69
0 48 1 88 -8 113 -24 15 -10 25 -21 22 -24 -6 -6 42 -32 60 -32 7 0 24 -14 38
-31 14 -17 29 -31 34 -30 4 0 7 -7 5 -14 -2 -9 4 -13 18 -10 13 2 20 -1 20
-11 0 -8 3 -13 8 -12 11 3 52 -13 52 -20 0 -9 -74 -7 -89 2 -6 4 -54 9 -107
11 -53 2 -105 7 -117 11 -12 4 -59 8 -104 9 -46 1 -86 4 -89 8 -3 3 -17 2 -30
-3 -16 -6 -24 -6 -24 1 0 6 -9 8 -19 4 -13 -4 -23 0 -29 11 -5 9 -24 18 -43
19 -19 2 -44 6 -56 8 -13 3 -23 1 -23 -4 0 -6 -7 -6 -17 -1 -29 14 -119 5
-149 -15 -16 -10 -25 -12 -21 -5 6 8 0 12 -20 13 -15 1 -32 0 -38 -1 -5 -1
-53 -3 -105 -4 -74 -3 -94 -6 -92 -17 3 -10 -2 -9 -15 3 -16 14 -21 15 -37 3
-13 -10 -24 -11 -38 -4 -10 5 -23 7 -28 4 -6 -3 -10 -1 -10 4 0 6 7 11 16 11
8 0 12 5 9 10 -3 6 -1 10 4 10 6 0 11 -5 11 -10 0 -6 6 -5 14 2 13 11 12 16
-5 33 -13 13 -22 16 -27 9 -4 -6 -15 -10 -24 -8 -10 1 -18 -1 -18 -6 0 -11
-49 -19 -55 -10 -12 20 8 38 43 38 60 2 77 4 83 15 4 5 17 11 30 12 13 1 28 3
33 4 4 0 6 8 3 15 -4 10 -1 13 9 9 7 -3 14 -9 14 -15 0 -5 10 -6 23 -3 22 7
22 7 2 -10 -17 -14 -18 -16 -2 -11 12 4 16 2 11 -5 -16 -27 49 -31 122 -8 17
5 38 7 47 3 10 -3 17 -1 17 6 0 6 4 9 9 5 5 -3 12 -1 15 3 3 5 17 8 30 7 15
-2 27 3 30 12 4 11 10 12 19 5 15 -12 41 -8 70 11 15 9 30 11 44 6 12 -4 25
-4 27 0 3 5 17 7 31 6 14 -2 27 0 30 5 3 4 20 4 39 0 24 -5 37 -4 40 4 3 7 8
6 15 -4 9 -13 11 -13 11 3 0 19 11 22 26 7z m2442 -15 c-3 -3 -9 2 -12 12 -6
14 -5 15 5 6 7 -7 10 -15 7 -18z m159 18 c-6 -10 19 -34 26 -27 7 7 29 -34 25
-47 -5 -16 -68 42 -68 62 0 11 5 19 11 19 5 0 8 -3 6 -7z m-3057 -23 c0 -5
-11 -7 -25 -5 -14 1 -25 -2 -25 -8 0 -5 -11 -7 -25 -5 -14 3 -28 1 -31 -3 -3
-5 -11 -9 -19 -9 -16 0 -28 26 -12 27 42 3 99 12 104 16 7 7 33 -3 33 -13z
m-430 -96 c0 -13 -31 -20 -69 -15 -8 2 -10 -2 -5 -10 5 -9 2 -10 -9 -6 -10 3
-17 3 -17 -1 0 -4 -8 -8 -17 -9 -10 -1 -32 -3 -49 -5 -20 -3 -31 1 -31 9 0 7
14 15 31 20 17 4 33 7 36 8 3 1 26 5 53 9 26 5 50 12 53 17 7 13 24 1 24 -17z
m3583 7 c4 -17 2 -18 -13 -8 -10 6 -16 15 -14 19 9 14 22 9 27 -11z m-3795
-59 c3 -9 -3 -13 -14 -11 -11 2 -25 0 -32 -5 -19 -11 -71 -16 -77 -7 -6 11 13
27 40 34 34 9 78 3 83 -11z m282 -3 c0 -11 -4 -17 -10 -14 -5 3 -10 13 -10 21
0 8 5 14 10 14 6 0 10 -9 10 -21z m-430 -29 c-20 -12 -33 -1 -19 16 9 11 15
12 23 4 8 -8 7 -13 -4 -20z m-55 8 c10 -10 -25 -31 -58 -34 -17 -1 -51 -5 -74
-8 -34 -4 -43 -2 -43 9 0 8 3 14 8 14 4 -1 9 0 12 1 16 6 50 11 83 12 20 1 37
5 37 9 0 8 26 6 35 -3z m-61 -197 c3 -5 -1 -11 -9 -14 -9 -4 -12 -1 -8 9 6 16
10 17 17 5z m1214 -36 c-3 -3 -9 2 -12 12 -6 14 -5 15 5 6 7 -7 10 -15 7 -18z
m-1270 -15 c10 -17 9 -20 -13 -26 -25 -6 -35 -24 -14 -24 5 0 7 -5 4 -10 -4
-6 -14 -2 -24 11 -15 19 -24 21 -64 15 -37 -6 -47 -11 -47 -27 0 -10 -7 -19
-15 -19 -8 0 -15 -4 -15 -9 0 -14 23 -26 27 -15 2 5 32 9 68 8 36 -1 65 3 65
8 0 5 9 4 19 -2 16 -8 22 -6 29 6 7 13 13 14 30 5 11 -6 27 -9 34 -6 11 4 79
14 116 17 6 1 12 5 12 10 0 5 5 6 12 2 20 -13 80 -15 93 -4 7 6 24 8 38 5 14
-4 27 -3 30 2 3 5 42 9 87 8 53 -1 84 3 91 11 7 8 19 10 39 4 41 -12 92 -14
113 -5 10 4 20 5 23 2 4 -3 16 -2 29 3 15 6 27 4 34 -3 8 -8 14 -8 19 -2 4 6
38 11 75 12 69 2 91 8 82 22 -5 9 61 -11 71 -22 3 -3 16 -2 28 3 13 4 29 4 36
0 8 -5 21 -5 29 0 17 8 70 8 86 -1 16 -9 126 -9 120 0 -2 5 6 11 20 13 14 3
25 2 25 -2 0 -5 8 -6 19 -3 10 3 22 0 25 -6 10 -15 89 -14 105 2 8 6 11 7 8 2
-3 -6 3 -17 15 -24 14 -9 18 -9 13 -1 -5 9 0 8 16 -1 27 -14 69 -17 87 -5 7 4
12 2 12 -3 0 -15 40 -7 50 10 6 9 3 20 -7 31 -10 11 -12 18 -5 18 7 0 12 -4
12 -10 0 -5 7 -10 16 -10 11 0 15 -6 11 -20 -3 -11 -1 -20 4 -20 5 0 8 -5 7
-11 -2 -6 7 -12 20 -14 12 -1 22 2 22 6 0 5 9 13 20 19 16 8 18 8 14 -4 -3 -8
3 -19 15 -26 15 -8 21 -8 21 0 0 12 41 10 51 -3 3 -4 22 -10 43 -12 21 -3 42
-7 46 -10 4 -2 16 2 26 10 22 16 48 20 39 5 -6 -10 13 -15 48 -12 9 1 17 -3
17 -8 0 -6 9 -10 20 -10 11 0 20 -4 20 -9 0 -5 9 -11 20 -14 11 -3 20 -2 20 2
0 3 18 6 40 6 27 0 40 -4 40 -13 0 -7 5 -10 10 -7 6 3 10 2 10 -3 0 -13 39
-22 45 -11 8 12 45 6 54 -9 4 -7 20 -13 37 -15 40 -4 84 -27 84 -44 0 -7 4
-13 8 -13 15 0 51 -76 54 -113 1 -20 5 -37 8 -37 3 0 16 -10 30 -23 14 -12 40
-34 58 -50 19 -15 30 -27 27 -27 -4 0 10 -16 31 -35 22 -19 47 -35 57 -35 9 0
17 -5 17 -10 0 -19 58 -72 65 -60 5 8 10 7 18 -4 7 -8 19 -16 27 -18 14 -3 29
-12 54 -35 8 -7 16 -9 20 -6 3 4 6 -1 6 -10 0 -10 7 -17 15 -17 8 0 14 -3 13
-7 -2 -5 20 -32 47 -61 28 -30 49 -58 47 -63 -1 -5 2 -9 7 -9 15 0 43 -90 48
-152 2 -32 0 -58 -4 -58 -5 0 -9 -21 -11 -47 -4 -88 -7 -111 -14 -118 -4 -4
-3 -15 2 -25 5 -10 6 -20 3 -24 -4 -4 -8 -30 -10 -59 -4 -89 -10 -133 -18
-147 -5 -8 -4 -11 3 -6 12 7 10 -62 -2 -82 -4 -7 -2 -12 3 -12 6 0 11 -9 11
-20 0 -11 -5 -19 -11 -17 -6 1 -19 -18 -28 -43 -21 -60 -29 -70 -52 -70 -10 0
-19 -6 -19 -14 0 -8 -13 -23 -30 -33 -16 -9 -30 -21 -30 -26 0 -4 -4 -6 -9 -2
-5 3 -22 -6 -37 -20 -15 -14 -32 -25 -39 -25 -7 0 -20 -9 -30 -20 -10 -11 -23
-20 -29 -20 -7 0 -27 -13 -46 -30 -19 -16 -41 -29 -47 -30 -7 0 -13 -4 -13
-10 0 -5 -9 -10 -20 -10 -11 0 -20 -4 -20 -8 0 -5 -26 -22 -57 -37 -32 -16
-62 -35 -66 -42 -4 -7 -21 -13 -37 -13 -15 0 -30 -4 -32 -8 -4 -10 -98 -65
-98 -57 0 4 -13 -3 -30 -15 -16 -12 -34 -18 -40 -15 -5 3 -10 1 -10 -4 0 -12
-64 -41 -91 -41 -10 0 -22 -7 -26 -15 -5 -8 -20 -16 -33 -19 -14 -2 -26 -5
-27 -7 -2 -1 -6 -3 -10 -4 -33 -10 -73 -31 -73 -37 0 -4 -11 -8 -24 -8 -14 0
-31 -6 -38 -12 -7 -7 -22 -14 -32 -16 -11 -2 -29 -10 -40 -17 -12 -7 -41 -19
-66 -25 -24 -7 -53 -18 -64 -26 -11 -8 -28 -14 -38 -14 -10 0 -18 -5 -18 -11
0 -6 -6 -9 -14 -6 -8 3 -17 3 -20 -1 -4 -3 -13 -7 -21 -8 -7 -1 -31 -8 -52
-15 -21 -7 -44 -12 -50 -11 -7 2 -13 -1 -13 -6 0 -5 -10 -10 -22 -10 -13 0
-36 -6 -53 -13 -16 -7 -34 -11 -40 -10 -13 3 -81 -17 -120 -35 -16 -7 -39 -12
-50 -10 -11 2 -25 0 -31 -5 -6 -5 -24 -10 -40 -12 -17 -2 -35 -7 -42 -11 -7
-4 -16 -4 -22 -1 -5 3 -10 2 -10 -2 0 -8 -28 -14 -77 -17 -13 0 -23 -4 -23 -7
0 -4 -19 -9 -42 -12 -58 -8 -71 -11 -86 -21 -7 -4 -19 -5 -27 -2 -8 3 -15 0
-15 -6 0 -6 -3 -8 -7 -5 -3 4 -12 -1 -19 -11 -9 -12 -9 -19 -1 -24 23 -14 -6
-23 -80 -25 -52 -1 -80 -6 -92 -17 -16 -15 -19 -15 -34 2 -10 10 -14 22 -10
25 10 11 -24 8 -117 -9 -47 -8 -97 -16 -112 -17 -16 -1 -28 -4 -28 -7 0 -3
-21 -6 -47 -5 -27 0 -55 -2 -63 -6 -8 -4 -46 -9 -83 -13 -38 -3 -72 -8 -75
-10 -8 -4 -177 -16 -327 -22 -55 -3 -122 -6 -149 -7 -28 -2 -69 0 -93 3 -24 4
-43 4 -43 1 0 -3 -19 -5 -42 -4 -24 1 -43 2 -43 3 0 1 -63 3 -140 5 -184 5
-281 12 -302 23 -10 4 -29 7 -43 6 -14 -2 -32 0 -40 3 -26 10 -120 23 -210 28
-19 1 -42 4 -50 7 -35 13 -127 31 -159 32 -20 1 -40 4 -46 8 -5 3 -35 11 -65
17 -30 6 -68 13 -85 17 -84 17 -110 13 -85 -12 16 -16 -14 -37 -40 -29 -11 3
-20 13 -20 21 0 8 4 13 9 10 10 -6 22 30 13 38 -3 3 -18 6 -34 6 -16 0 -42 7
-57 15 -16 8 -31 11 -35 8 -3 -4 -6 -1 -6 6 0 7 -8 11 -18 9 -22 -3 -67 36
-57 51 3 6 2 11 -4 11 -13 0 -41 58 -41 87 0 12 -4 23 -9 23 -17 0 -35 82 -23
110 9 22 8 110 -1 110 -17 0 24 143 49 171 8 9 14 20 13 25 -1 5 7 29 19 54
12 25 22 53 22 62 0 9 5 20 10 23 8 5 7 11 -1 21 -6 8 -7 14 -2 14 5 0 10 11
11 25 3 46 5 55 12 55 4 0 6 10 5 23 -1 12 2 28 8 35 6 8 6 12 -2 12 -6 0 -3
14 9 35 11 19 15 37 10 40 -6 3 -5 17 1 33 14 34 18 55 25 117 7 68 12 100 14
100 2 0 10 36 14 70 3 17 5 31 5 33 1 1 0 4 -1 5 -2 2 3 11 9 19 13 15 27 78
25 111 0 9 4 17 10 17 5 0 8 6 5 14 -3 7 0 19 6 25 7 7 13 22 13 34 1 12 2 32
3 45 0 12 7 22 14 22 8 0 14 13 15 30 3 51 5 60 14 60 4 0 8 9 8 20 0 11 5 20
10 20 6 0 9 3 9 8 -1 4 -1 19 0 35 1 21 6 27 24 27 14 0 18 3 10 8 -10 6 -9
14 1 34 8 15 12 29 10 31 -3 3 6 14 20 25 15 11 26 25 26 31 0 6 3 11 8 11 4
0 15 15 25 33 10 17 32 48 50 68 32 36 106 86 120 81 4 -1 7 2 7 7 0 12 47 61
60 61 5 0 10 4 10 9 0 5 14 14 30 20 17 5 33 17 36 25 3 9 10 13 15 10 5 -3 9
0 9 5 0 6 7 11 15 11 8 0 15 4 15 10 0 5 12 13 28 16 15 4 34 13 43 21 9 7 30
15 48 16 27 2 35 10 33 37 0 3 9 6 21 7 12 1 31 4 42 7 11 2 22 5 25 5 3 1 -1
5 -9 10 -9 6 -2 10 24 13 28 3 39 0 46 -14 10 -18 12 -17 40 7 33 27 44 30 54
15 4 -6 12 -4 21 5 9 8 19 13 24 10 5 -3 10 -1 12 4 1 6 26 12 53 15 28 2 58
7 68 11 9 4 24 2 32 -5 12 -10 15 -9 15 4 0 9 3 15 8 15 4 -1 9 0 12 1 16 6
49 11 80 11 19 1 39 4 45 7 5 3 23 7 40 9 31 2 70 10 70 13 0 2 17 3 38 4 20
1 37 -2 37 -7 0 -5 6 -5 13 1 6 6 32 11 57 13 25 1 50 5 55 9 6 4 40 7 78 8
73 1 98 9 76 23 -11 7 -11 9 1 9 8 0 21 -9 28 -20z m182 5 c-1 -11 -41 -8 -53
5 -5 4 5 7 22 6 17 -1 31 -6 31 -11z m-65 -5 c3 -5 -1 -10 -10 -10 -9 0 -13 5
-10 10 3 6 8 10 10 10 2 0 7 -4 10 -10z m1755 0 c12 -8 9 -9 -12 -8 -15 1 -24
6 -22 10 7 10 16 10 34 -2z m141 -73 c-1 -12 -15 -9 -19 4 -3 6 1 10 8 8 6 -3
11 -8 11 -12z m-2821 -7 c0 -5 -5 -10 -11 -10 -5 0 -7 5 -4 10 3 6 8 10 11 10
2 0 4 -4 4 -10z m5160 -5 c7 -8 16 -12 21 -9 5 3 9 -4 9 -15 0 -11 -4 -23 -10
-26 -5 -3 -10 3 -10 14 0 11 -4 23 -10 26 -5 3 -10 1 -10 -4 0 -20 -26 -11
-27 9 -2 23 19 26 37 5z m45 -95 c3 -5 1 -10 -4 -10 -6 0 -11 5 -11 10 0 6 2
10 4 10 3 0 8 -4 11 -10z m-6709 -215 c3 -18 -12 -29 -26 -20 -7 4 -6 13 1 26
11 22 21 19 25 -6z m-24 -40 c0 -5 -5 -11 -11 -13 -6 -2 -11 4 -11 13 0 9 5
15 11 13 6 -2 11 -8 11 -13z m-1019 -489 c7 -18 -1 -26 -25 -26 -16 0 -17 3
-8 20 13 23 26 26 33 6z m1302 -25 c3 -5 2 -12 -3 -15 -5 -3 -9 1 -9 9 0 17 3
19 12 6z m-1001 -63 c3 -18 0 -27 -7 -25 -20 4 -26 20 -15 40 12 22 15 20 22
-15z m-334 -26 c0 -5 -7 -9 -15 -9 -8 0 -15 4 -15 9 0 4 7 8 15 8 8 0 15 -4
15 -8z m-91 -139 c0 -11 -3 -13 -6 -5 -2 6 -10 9 -15 6 -7 -4 -8 -2 -4 4 11
18 26 14 25 -5z m1396 -12 c3 -5 2 -12 -3 -15 -5 -3 -9 1 -9 9 0 17 3 19 12 6z
m-19 -98 c-3 -21 -5 -38 -6 -38 -3 0 -9 -32 -13 -67 -1 -15 -6 -30 -10 -34
-14 -14 4 -23 28 -14 20 8 25 6 25 -6 0 -10 -6 -13 -17 -10 -30 9 -47 -9 -52
-56 -1 -5 -6 -8 -12 -8 -5 0 -7 5 -4 10 3 6 3 10 -2 10 -10 0 -10 125 1 168 4
17 12 32 17 32 6 0 7 5 4 10 -3 6 -1 10 4 10 6 0 10 3 10 8 -3 16 2 22 16 22
11 0 14 -9 11 -37z m-1396 -75 c0 -5 -6 -8 -13 -8 -9 0 -14 12 -15 33 l-1 32
14 -25 c8 -14 14 -28 15 -32z m7140 -183 c0 -8 -4 -17 -10 -20 -6 -4 -10 5
-10 20 0 15 4 24 10 20 6 -3 10 -12 10 -20z m827 19 c-3 -3 -12 -4 -19 -1 -8
3 -5 6 6 6 11 1 17 -2 13 -5z m-7237 -59 c0 -2 -9 -9 -20 -15 -12 -6 -20 -7
-20 -1 0 5 8 12 18 14 9 3 18 5 20 6 1 0 2 -1 2 -4z m6400 -65 c0 -5 -2 -10
-4 -10 -3 0 -8 5 -11 10 -3 6 -1 10 4 10 6 0 11 -4 11 -10z m-5890 -25 c0 -8
-6 -12 -14 -9 -8 3 -12 12 -9 20 6 17 23 9 23 -11z m5848 14 c-2 -6 -8 -10
-13 -10 -5 0 -11 4 -13 10 -2 6 4 11 13 11 9 0 15 -5 13 -11z m-6353 -50 c2
-24 -1 -52 -6 -61 -5 -10 -5 -19 0 -22 10 -6 12 -56 2 -56 -13 0 -32 17 -30
26 2 5 -3 28 -10 51 -10 35 -9 48 4 79 19 47 38 39 40 -17z m7185 41 c0 -5 -5
-10 -11 -10 -5 0 -7 5 -4 10 3 6 8 10 11 10 2 0 4 -4 4 -10z m-6725 -42 c-4
-38 -5 -39 -14 -34 -10 6 -2 56 9 56 4 0 6 -10 5 -22z m-2 -98 c-3 -11 -7 -20
-9 -20 -2 0 -4 9 -4 20 0 11 4 20 9 20 5 0 7 -9 4 -20z m-460 -84 c-4 -5 -12
-1 -19 9 -7 10 -11 22 -8 27 3 5 12 1 19 -9 7 -10 11 -22 8 -27z m-479 -102
c3 -12 2 -34 -3 -47 -6 -14 -7 -27 -4 -30 3 -3 -1 -15 -9 -26 -14 -19 -14 -19
-26 0 -7 10 -8 19 -3 19 4 0 8 8 8 18 0 68 4 89 17 89 8 0 17 -11 20 -23z
m6892 -91 c-10 -11 -36 -12 -36 -2 0 5 10 9 22 9 12 0 18 -3 14 -7z m-26 -47
c0 -8 7 -16 15 -20 26 -10 17 -29 -10 -22 -14 4 -34 2 -45 -4 -14 -8 -20 -8
-20 0 0 6 10 15 23 20 12 5 16 9 8 9 -11 1 -11 4 -1 16 16 19 30 19 30 1z
m-6851 -30 c9 -10 8 -16 -4 -26 -9 -7 -15 -8 -15 -2 0 6 -3 17 -6 26 -8 20 9
21 25 2z m-56 -52 c-3 -7 1 -26 9 -41 16 -35 12 -93 -8 -93 -8 0 -14 7 -14 16
0 8 -4 13 -8 10 -4 -2 -8 6 -8 20 0 16 4 23 13 20 10 -4 11 -1 4 13 -6 10 -7
21 -3 25 3 4 0 11 -8 16 -11 7 -12 10 -2 10 7 0 11 4 8 8 -3 5 1 9 8 9 8 0 12
-6 9 -13z m6061 -26 c-7 -11 9 -10 40 2 24 9 25 8 14 -10 -7 -11 -16 -20 -20
-20 -5 0 -8 -6 -8 -14 0 -8 -7 -17 -16 -20 -8 -3 -12 -10 -9 -16 3 -5 -5 -15
-19 -22 -14 -6 -26 -15 -26 -20 0 -4 -17 -25 -38 -46 -22 -22 -45 -53 -53 -70
-8 -18 -17 -32 -21 -32 -5 0 -8 -6 -8 -13 0 -26 -86 -79 -118 -72 -24 4 -47
-19 -56 -58 -4 -15 -11 -25 -16 -22 -6 3 -10 1 -10 -5 0 -7 -7 -5 -16 4 -24
24 -34 19 -30 -14 2 -22 0 -28 -8 -21 -7 6 -17 6 -26 1 -11 -7 -12 -10 -2 -10
7 0 11 -4 8 -9 -9 -14 -86 -52 -95 -46 -5 2 -20 -5 -35 -16 -14 -11 -39 -21
-55 -21 -26 -1 -44 -21 -43 -48 0 -3 -11 -6 -24 -7 -13 -1 -35 -3 -49 -4 -14
-1 -34 -12 -44 -25 -10 -13 -24 -24 -30 -24 -6 0 -11 -4 -11 -10 0 -12 -22 -9
-32 5 -5 6 -8 6 -8 -2 0 -6 -8 -10 -17 -9 -10 2 -28 -3 -40 -11 -12 -8 -34
-16 -50 -17 -39 -4 -63 -16 -63 -31 0 -7 -15 -15 -32 -17 -18 -3 -42 -9 -52
-13 -13 -6 -17 -5 -13 2 4 7 0 10 -10 8 -10 -2 -22 -4 -26 -4 -5 -1 -6 -5 -3
-9 2 -4 -16 -14 -42 -22 -26 -7 -50 -18 -53 -23 -4 -5 -31 -16 -60 -24 -30 -8
-61 -16 -69 -18 -8 -2 -35 -12 -60 -21 -25 -9 -56 -18 -70 -20 -14 -3 -43 -11
-65 -19 -22 -7 -62 -17 -90 -20 -27 -4 -55 -11 -62 -17 -6 -5 -25 -11 -42 -13
-16 -2 -49 -9 -73 -15 -108 -30 -174 -40 -268 -42 -30 -1 -79 2 -108 7 -49 6
-53 5 -50 -11 2 -15 -3 -19 -27 -19 -16 0 -35 -4 -42 -8 -6 -4 -15 -2 -19 4
-5 8 -9 7 -14 -2 -6 -8 -39 -14 -97 -16 -138 -5 -274 -5 -318 0 -22 2 -78 8
-125 11 -47 4 -99 12 -117 17 -18 6 -40 9 -50 8 -18 -2 -70 9 -87 19 -5 3 -32
7 -60 8 -71 5 -129 15 -141 24 -10 7 -69 23 -80 21 -11 -3 -65 30 -65 39 0 6
-7 10 -16 10 -8 0 -12 -4 -9 -10 12 -19 -11 -10 -30 12 -10 12 -20 17 -22 11
-4 -11 -60 5 -114 32 -16 9 -34 14 -41 13 -7 -2 -13 4 -13 13 0 21 -35 55 -43
42 -9 -14 -30 -9 -74 17 -21 12 -35 27 -31 33 4 6 0 8 -10 4 -9 -3 -16 -3 -16
1 4 22 -5 28 -38 30 -80 3 -102 16 -52 30 19 5 38 5 44 1 5 -5 28 -9 50 -9 33
0 44 -5 51 -20 9 -20 10 -20 29 -3 26 22 40 26 77 18 27 -6 31 -20 6 -20 -6 0
-12 -8 -14 -17 -1 -12 4 -18 16 -18 10 0 23 -7 30 -14 8 -11 18 -12 34 -6 17
6 28 4 40 -8 9 -9 16 -11 16 -6 0 6 13 11 30 10 16 -1 30 -5 30 -9 0 -4 8 -4
17 1 11 7 21 5 31 -4 7 -8 18 -12 23 -9 21 13 51 13 76 -1 31 -16 63 -19 63
-5 0 7 55 8 85 1 25 -6 46 1 39 13 -5 9 -4 9 6 0 12 -11 44 -7 36 6 -2 3 20 6
50 6 30 -1 54 3 54 8 0 5 6 5 13 -1 7 -6 18 -7 25 -3 7 4 31 5 54 3 93 -8 148
-3 148 15 0 7 4 13 9 13 5 0 8 10 6 23 -2 12 -5 31 -7 41 -2 10 3 21 11 24 8
2 11 0 7 -6 -3 -5 2 -13 11 -16 12 -5 14 -9 5 -18 -15 -15 -16 -31 -1 -22 6 3
3 -5 -6 -19 l-17 -26 34 9 c18 6 34 10 35 10 2 0 3 9 3 19 0 14 5 18 20 14 14
-4 20 0 20 12 0 13 3 15 13 6 8 -6 17 -7 21 -3 4 4 12 8 17 8 5 1 14 2 19 3 6
0 9 7 8 14 -2 7 7 12 22 12 14 0 29 6 33 12 4 7 19 12 32 11 23 -2 31 -15 25
-43 -1 -5 4 -4 11 3 19 18 29 15 29 -8 0 -15 6 -19 25 -18 16 2 24 7 21 15 -3
7 -1 13 4 13 4 0 22 12 39 26 25 21 34 23 51 14 11 -6 20 -15 20 -20 0 -5 9
-8 19 -7 20 1 23 17 6 29 -6 5 -5 12 3 20 20 20 14 38 -18 49 -23 9 -27 13
-17 24 7 7 15 11 18 9 15 -9 59 -12 59 -4 0 5 7 7 16 3 9 -3 12 -9 7 -12 -4
-3 -9 -12 -11 -20 -2 -10 5 -12 23 -9 15 3 29 0 33 -7 4 -7 22 -16 41 -20 22
-5 31 -4 27 3 -9 14 23 20 59 10 19 -5 31 -4 33 2 2 6 7 8 10 6 4 -2 13 2 20
10 7 8 8 14 2 14 -16 0 -12 27 6 34 9 4 25 0 34 -9 18 -16 50 -11 51 9 0 6 4
1 9 -11 5 -13 17 -23 25 -23 9 0 13 5 10 10 -3 6 0 10 8 10 8 0 27 7 43 14 28
15 49 12 39 -5 -8 -13 6 -11 34 5 13 7 32 11 43 8 10 -2 18 1 18 7 0 8 6 7 21
-1 17 -11 22 -10 30 5 6 9 15 15 20 12 5 -4 7 -10 5 -14 -6 -10 50 -8 60 2 4
4 16 7 26 7 10 0 18 4 18 9 0 5 17 12 37 16 47 9 75 23 68 35 -3 5 7 9 22 10
15 0 49 1 76 1 26 0 47 4 47 9 0 5 16 6 35 3 30 -5 36 -2 45 21 5 14 12 26 16
26 3 0 4 -7 0 -15 -3 -9 0 -15 8 -15 8 0 16 -5 18 -11 2 -6 13 -3 28 9 18 15
30 18 43 11 13 -7 19 -6 23 6 4 10 13 13 25 10 11 -4 19 -2 19 6 0 7 10 10 29
6 25 -5 30 -3 36 20 6 24 7 24 19 8 7 -10 23 -20 34 -22 12 -1 25 -3 29 -4 23
-4 31 3 28 21 -3 16 2 20 21 20 17 0 24 5 24 20 0 11 5 20 11 20 5 0 7 5 3 12
-5 8 0 9 15 5 12 -3 28 1 36 10 12 11 26 13 58 7 67 -11 81 -12 100 0 9 6 17
17 17 24 0 9 6 12 15 8 8 -3 22 -9 30 -12 8 -3 15 -1 15 5 0 5 18 16 40 22 22
7 40 16 40 20 0 10 51 27 73 23 9 -1 15 2 11 7 -3 5 6 9 20 9 16 0 26 6 26 14
0 8 5 18 12 22 7 4 8 3 4 -4 -4 -7 -1 -12 8 -12 8 0 18 5 21 10 4 6 10 8 15 5
5 -3 19 -1 32 4 12 5 27 9 31 9 5 0 15 9 24 19 9 11 12 12 8 3 -5 -12 -3 -11
7 1 7 9 28 20 46 23 38 9 48 22 32 41 -9 10 -7 14 7 17 30 6 42 5 37 -4z
m-5974 -8 c0 -5 -2 -10 -4 -10 -3 0 -8 5 -11 10 -3 6 -1 10 4 10 6 0 11 -4 11
-10z m85 -10 c3 -5 1 -10 -4 -10 -6 0 -11 5 -11 10 0 6 2 10 4 10 3 0 8 -4 11
-10z m5791 -25 c-11 -8 -24 -15 -30 -15 -5 0 -1 7 10 15 10 8 24 14 29 14 6 0
1 -6 -9 -14z m760 -40 c1 -8 -2 -17 -7 -21 -5 -3 -9 7 -9 22 0 27 12 26 16 -1z
m-6510 -42 c13 -13 24 -28 24 -33 0 -6 7 -10 15 -10 8 0 15 -6 15 -14 0 -8 7
-17 16 -20 9 -3 14 -11 12 -18 -3 -7 6 -22 20 -35 13 -12 21 -27 17 -33 -4 -6
5 -20 20 -32 14 -11 24 -23 21 -26 -3 -3 2 -11 12 -18 9 -7 17 -17 17 -22 0
-12 33 -58 70 -96 27 -27 60 -83 66 -111 1 -5 13 -27 26 -47 13 -21 18 -38 12
-38 -6 0 -3 -7 5 -16 9 -8 19 -27 23 -42 3 -14 19 -37 34 -50 16 -13 28 -26
28 -30 -4 -25 4 -41 20 -47 22 -7 36 -45 17 -45 -7 0 -17 8 -22 19 -6 13 -15
16 -28 12 -18 -7 -18 -8 -1 -25 10 -9 16 -18 14 -19 -2 -1 -15 -11 -28 -22
-24 -20 -24 -20 -17 0 4 16 -1 25 -23 38 -15 9 -31 14 -34 11 -3 -4 -9 5 -13
20 -4 17 -13 26 -26 26 -11 0 -22 8 -25 20 -3 11 -11 20 -18 20 -8 0 -17 9
-20 20 -3 11 -11 20 -16 20 -6 0 -7 5 -4 10 3 6 1 10 -5 10 -6 0 -9 4 -6 8 3
5 -6 19 -19 30 -14 12 -25 28 -25 36 0 8 -10 23 -23 33 -13 10 -22 24 -19 31
2 6 -1 12 -7 12 -6 0 -11 5 -11 11 0 7 -8 18 -17 25 -10 7 -19 17 -19 23 -1 6
-2 12 -4 14 -3 4 -12 42 -13 60 -1 9 -8 17 -15 17 -8 0 -12 6 -9 14 3 8 -1 17
-10 20 -9 4 -13 9 -9 13 3 3 -1 14 -10 24 -10 11 -12 19 -5 24 6 3 11 11 11
16 0 6 -4 7 -10 4 -5 -3 -10 3 -10 13 0 11 -7 25 -15 32 -8 7 -17 27 -21 46
-3 19 -10 37 -15 40 -5 3 -7 9 -4 14 2 4 7 25 10 46 3 22 9 46 12 54 5 13 6
13 11 1 3 -8 16 -25 28 -38z m-166 -11 c-6 -2 -7 -9 -4 -15 5 -9 4 -9 -6 0 -7
7 -10 19 -6 30 6 15 8 15 16 3 6 -9 6 -16 0 -18z m6641 -11 c-11 -7 -10 -10 4
-18 12 -7 15 -17 10 -32 -3 -12 -11 -19 -16 -16 -5 4 -9 2 -9 -3 0 -5 -11 -15
-25 -22 -14 -8 -28 -24 -31 -37 -4 -12 -9 -21 -13 -19 -4 3 -27 -16 -51 -42
-25 -26 -49 -47 -55 -47 -5 0 -10 -7 -10 -15 0 -8 -4 -15 -10 -15 -5 0 -14 -3
-20 -6 -5 -4 -23 -9 -39 -13 -16 -4 -38 -18 -48 -32 -11 -13 -28 -24 -39 -24
-25 0 -25 20 1 27 15 4 18 11 14 27 -4 16 1 25 20 36 14 7 23 17 20 21 -2 4 8
9 23 11 16 2 27 8 26 13 -2 6 12 15 30 21 17 7 31 16 30 22 -2 6 16 26 40 44
23 18 44 37 46 42 7 16 65 73 81 79 24 9 36 8 21 -2z m-6656 -45 c2 -18 -1
-23 -11 -19 -15 6 -17 13 -8 38 8 20 16 13 19 -19z m35 -127 c9 -15 7 -19 -5
-19 -9 0 -13 5 -10 10 3 6 2 10 -3 10 -5 0 -9 7 -9 15 0 18 13 10 27 -16z m95
-66 c5 -17 2 -23 -9 -23 -20 0 -29 16 -21 41 8 23 19 16 30 -18z m17 -56 c-3
-12 -7 -15 -12 -7 -5 8 -11 6 -20 -5 -7 -8 -8 -15 -3 -15 5 0 9 -9 9 -20 0
-25 -12 -26 -25 -2 -8 14 -5 25 10 44 24 30 48 33 41 5z m6148 -61 c0 -11 -19
-15 -25 -6 -3 5 1 10 9 10 9 0 16 -2 16 -4z m-2390 -16 c0 -5 -7 -10 -15 -10
-8 0 -15 -5 -15 -11 0 -5 -5 -7 -11 -3 -8 4 -3 12 12 20 29 16 29 16 29 4z
m-3758 -59 c-11 -12 -15 -12 -22 -1 -4 7 -6 20 -5 29 2 9 4 18 4 20 1 3 9 -4
19 -15 16 -16 17 -21 4 -33z m3448 15 c0 -2 -8 -10 -17 -17 -16 -13 -17 -12
-4 4 13 16 21 21 21 13z m-3399 -15 c-10 -7 -4 -15 27 -32 23 -13 46 -36 51
-50 5 -14 15 -32 23 -40 19 -18 43 -62 40 -71 -1 -5 3 -8 8 -8 6 0 10 -8 10
-17 -1 -14 -6 -11 -27 12 -14 17 -30 30 -34 30 -4 0 -16 10 -27 22 -10 13 -23
19 -27 15 -5 -4 -6 0 -2 10 4 11 -1 18 -14 21 -11 3 -19 9 -18 14 4 23 -2 43
-13 41 -7 -2 -12 3 -10 10 1 6 -5 12 -13 12 -8 0 -15 4 -15 8 0 13 23 32 40
32 12 0 13 -2 1 -9z m1728 -14 c8 -10 7 -14 -2 -14 -8 0 -14 6 -14 14 0 7 1
13 2 13 2 0 8 -6 14 -13z m-1809 -1 c0 -2 -7 -6 -15 -10 -8 -3 -15 -1 -15 4 0
6 7 10 15 10 8 0 15 -2 15 -4z m3354 -17 c-6 -11 -24 -2 -24 11 0 5 7 7 15 4
8 -4 12 -10 9 -15z m-1535 -18 c19 -1 9 -11 -17 -16 -11 -2 -23 2 -26 10 -3 8
2 12 12 10 9 -2 23 -4 31 -4z m51 -11 c0 -5 -5 -10 -11 -10 -5 0 -7 5 -4 10 3
6 8 10 11 10 2 0 4 -4 4 -10z m-30 -50 c0 -5 -4 -10 -10 -10 -5 0 -10 5 -10
10 0 6 5 10 10 10 6 0 10 -4 10 -10z m965 -10 c3 -5 -1 -10 -9 -10 -9 0 -16 5
-16 10 0 6 4 10 9 10 6 0 13 -4 16 -10z m-405 -24 c0 -8 -7 -16 -15 -20 -15
-5 -21 14 -8 27 11 12 23 8 23 -7z m3687 -8 c-3 -8 -6 -5 -6 6 -1 11 2 17 5
13 3 -3 4 -12 1 -19z m-3729 0 c-6 -18 -25 -21 -25 -3 0 8 7 15 15 15 7 0 12
-5 10 -12z m362 -13 c0 -8 -9 -19 -19 -25 -17 -9 -19 -7 -16 10 2 11 7 25 10
30 8 13 25 3 25 -15z m-230 6 c12 -3 -22 -24 -45 -27 -15 -1 -24 0 -21 3 3 4
2 11 -4 18 -6 8 1 10 28 9 20 -1 39 -2 42 -3z m3550 -35 c0 -3 -4 -8 -10 -11
-5 -3 -10 -1 -10 4 0 6 5 11 10 11 6 0 10 -2 10 -4z m-60 -36 c0 -5 -5 -10
-11 -10 -5 0 -7 5 -4 10 3 6 8 10 11 10 2 0 4 -4 4 -10z m-6137 -54 c10 -8 18
-17 18 -20 -2 -17 2 -24 34 -59 37 -40 45 -60 20 -51 -8 4 -15 10 -15 16 0 5
-11 19 -25 32 -14 13 -25 31 -25 41 0 12 -5 15 -17 11 -10 -4 -14 -4 -11 0 4
4 3 15 -3 25 -11 22 -1 24 24 5z m1557 10 c0 -11 -19 -15 -25 -6 -3 5 1 10 9
10 9 0 16 -2 16 -4z m-1133 -81 c1 0 -2 -6 -6 -13 -4 -7 -15 -10 -24 -6 -9 3
-15 10 -12 14 3 4 -4 10 -15 13 -13 3 -18 10 -14 21 5 14 10 13 38 -6 17 -12
32 -22 33 -23z m1207 -5 c-6 -5 -24 21 -24 34 0 6 6 1 14 -10 8 -10 12 -21 10
-24z m-844 0 c0 -5 -4 -10 -10 -10 -5 0 -10 5 -10 10 0 6 5 10 10 10 6 0 10
-4 10 -10z m910 -15 c7 -9 15 -13 18 -11 2 3 16 -3 30 -14 13 -11 29 -17 36
-13 6 4 6 1 -2 -9 -11 -14 -17 -14 -57 0 -25 8 -45 21 -45 28 0 8 -5 14 -11
14 -5 0 -7 5 -4 10 9 14 21 12 35 -5z m-1080 -9 c0 -3 -4 -8 -10 -11 -5 -3
-10 -1 -10 4 0 6 5 11 10 11 6 0 10 -2 10 -4z m-466 -95 c-6 -6 -44 36 -44 49
0 6 11 -2 24 -17 13 -15 22 -30 20 -32z m1660 25 c-21 -15 -30 -14 -19 3 3 6
14 11 23 11 13 0 13 -2 -4 -14z m-1774 -6 c0 -5 -2 -10 -4 -10 -3 0 -8 5 -11
10 -3 6 -1 10 4 10 6 0 11 -4 11 -10z m24 -26 c3 -8 2 -12 -4 -9 -6 3 -10 10
-10 16 0 14 7 11 14 -7z m185 -41 c12 -26 6 -29 -15 -8 -8 8 -21 12 -28 9 -7
-3 -16 2 -19 10 -10 26 50 15 62 -11z m-142 -3 c-1 -12 -5 -16 -10 -11 -5 5
-6 14 -3 20 11 16 15 13 13 -9z m13 -76 c0 -8 -6 -11 -15 -7 -9 3 -14 10 -12
17 2 6 -7 19 -20 29 -13 10 -23 23 -23 28 0 5 16 -5 35 -22 19 -18 35 -38 35
-45z m100 46 c0 -5 -5 -10 -11 -10 -5 0 -7 5 -4 10 3 6 8 10 11 10 2 0 4 -4 4
-10z m18 -64 c2 -9 -2 -16 -8 -16 -6 0 -8 5 -4 11 4 7 -4 21 -17 32 l-24 19
25 -14 c14 -9 26 -23 28 -32z m1714 9 c16 -14 23 -25 16 -25 -13 0 -58 35 -58
45 0 10 13 4 42 -20z m3628 -5 c0 -5 -5 -10 -11 -10 -5 0 -7 5 -4 10 3 6 8 10
11 10 2 0 4 -4 4 -10z m-3530 -22 c0 -6 -6 -5 -15 2 -8 7 -15 14 -15 16 0 2 7
1 15 -2 8 -4 15 -11 15 -16z m410 2 c0 -5 -5 -10 -11 -10 -5 0 -7 5 -4 10 3 6
8 10 11 10 2 0 4 -4 4 -10z m3215 0 c-3 -5 -10 -10 -16 -10 -5 0 -9 5 -9 10 0
6 7 10 16 10 8 0 12 -4 9 -10z m-49 -12 c4 -6 3 -8 -4 -4 -5 3 -12 2 -14 -3
-5 -14 -40 -17 -45 -4 -2 6 8 13 24 16 15 2 29 5 30 6 1 0 5 -4 9 -11z m-3175
-33 c5 3 24 3 43 0 53 -10 36 -33 -23 -30 -52 2 -95 20 -86 36 4 5 10 7 14 5
4 -3 13 -1 21 4 11 7 16 5 18 -5 2 -9 8 -13 13 -10z m-91 5 c0 -5 -2 -10 -4
-10 -3 0 -8 5 -11 10 -3 6 -1 10 4 10 6 0 11 -4 11 -10z m3050 -30 c0 10 59
25 67 17 2 -3 1 -13 -5 -23 -5 -10 -12 -13 -16 -6 -3 5 -15 8 -26 5 -11 -3
-17 -9 -14 -14 3 -5 1 -9 -5 -9 -5 0 -11 5 -13 11 -3 8 -16 7 -43 -6 -84 -37
-103 -49 -98 -62 3 -7 0 -13 -6 -13 -12 0 -13 4 -15 48 -1 23 3 28 34 33 53 9
80 20 74 31 -3 5 10 2 30 -6 20 -8 36 -11 36 -6z m-2808 -12 c-8 -8 -17 -8
-34 0 -22 10 -21 11 12 11 26 1 31 -2 22 -11z m78 2 c0 -5 -4 -10 -10 -10 -5
0 -10 5 -10 10 0 6 5 10 10 10 6 0 10 -4 10 -10z m280 -14 c0 -3 -4 -8 -10
-11 -5 -3 -10 -1 -10 4 0 6 5 11 10 11 6 0 10 -2 10 -4z m-1773 -12 c-3 -3
-12 -4 -19 -1 -8 3 -5 6 6 6 11 1 17 -2 13 -5z m1318 -37 c13 -26 11 -31 -9
-28 -5 1 -6 -5 -3 -13 4 -9 2 -18 -3 -21 -6 -4 -10 -1 -10 4 0 6 -8 11 -19 11
-26 0 -44 23 -29 38 9 9 9 12 -1 12 -11 0 -11 3 -2 14 19 22 60 13 76 -17z
m55 -17 c0 -5 -5 -10 -11 -10 -5 0 -7 5 -4 10 3 6 8 10 11 10 2 0 4 -4 4 -10z
m115 -28 c-3 -3 -11 0 -18 7 -9 10 -8 11 6 5 10 -3 15 -9 12 -12z m165 9 c0
-5 -7 -11 -15 -15 -15 -5 -20 5 -8 17 9 10 23 9 23 -2z m125 -11 c10 0 13 5 9
12 -5 8 5 9 37 3 78 -13 89 -13 89 -3 0 6 6 5 15 -2 8 -7 15 -8 15 -3 0 5 11
10 25 11 25 2 35 -20 15 -33 -5 -3 -10 -1 -10 6 0 9 -3 9 -14 -1 -8 -6 -25
-10 -37 -8 -35 5 -33 -19 3 -32 32 -12 33 -12 11 -22 -13 -6 -23 -15 -23 -20
0 -5 10 -8 23 -7 12 2 28 0 36 -5 8 -5 17 -3 23 5 8 11 8 10 4 -4 -3 -10 -6
-22 -6 -26 0 -4 -8 -8 -17 -9 -10 -1 -27 -3 -38 -5 -13 -3 -29 7 -46 29 -14
18 -29 31 -33 27 -3 -3 -6 3 -6 15 0 14 -6 20 -19 19 -11 0 -19 -6 -18 -11 2
-9 -37 -12 -75 -7 -3 1 -4 9 -1 20 3 10 0 22 -6 25 -6 4 -11 16 -11 27 0 16 3
18 19 9 11 -5 27 -10 36 -10z m2159 -5 c-10 -8 -27 -15 -37 -15 -15 0 -16 2
-5 14 7 8 15 12 18 11 3 -2 12 0 20 5 22 14 26 2 4 -15z m-1199 -11 c13 -5 14
-8 3 -15 -19 -13 -28 -11 -28 6 0 17 2 18 25 9z m-1401 -11 c4 -5 13 -8 19 -8
5 0 12 -5 14 -11 6 -17 -20 -12 -41 8 -11 10 -15 18 -9 18 5 0 13 -3 17 -7z
m2119 -7 c6 -16 -19 -30 -28 -16 -4 6 -1 10 5 10 6 0 8 5 5 10 -3 6 -2 10 3
10 6 0 12 -6 15 -14z m-1163 -6 c0 -5 -5 -10 -11 -10 -5 0 -7 5 -4 10 3 6 8
10 11 10 2 0 4 -4 4 -10z m1096 -2 c8 -12 9 -20 5 -52 0 -6 -10 0 -22 12 -11
12 -25 20 -31 16 -6 -4 -6 2 1 15 13 24 34 27 47 9z m-1981 -26 c-3 -3 -11 0
-18 7 -9 10 -8 11 6 5 10 -3 15 -9 12 -12z m574 -3 c-16 -10 -23 -4 -14 10 3
6 11 8 17 5 6 -4 5 -9 -3 -15z m2006 1 c3 -5 -1 -10 -10 -10 -9 0 -13 5 -10
10 3 6 8 10 10 10 2 0 7 -4 10 -10z m-510 -10 c-3 -5 -12 -10 -18 -10 -7 0 -6
4 3 10 19 12 23 12 15 0z m-1440 -10 c3 -5 -1 -10 -10 -10 -9 0 -13 5 -10 10
3 6 8 10 10 10 2 0 7 -4 10 -10z m155 6 c0 -11 -19 -15 -25 -6 -3 5 1 10 9 10
9 0 16 -2 16 -4z m-405 -18 c14 -6 25 -15 25 -20 0 -12 -17 -10 -32 5 -7 8
-19 12 -26 9 -6 -2 -12 1 -12 7 0 14 13 14 45 -1z m1405 -3 c-7 -9 -15 -13
-19 -10 -3 3 1 10 9 15 21 14 24 12 10 -5z m978 1 c20 2 31 0 27 -6 -3 -6 0
-10 7 -10 7 0 0 -9 -17 -20 -16 -11 -39 -19 -50 -18 -11 1 -25 -1 -31 -5 -7
-4 -14 2 -17 15 -7 27 20 63 37 49 6 -5 26 -7 44 -5z m-1018 -13 c0 -6 -4 -15
-10 -18 -10 -6 -9 -33 3 -52 4 -6 2 -15 -4 -19 -8 -4 -9 -3 -5 5 4 7 -2 15
-16 20 -14 5 -25 5 -29 -2 -4 -5 -12 -6 -18 -3 -6 4 -9 11 -6 16 3 4 -2 11
-11 14 -8 3 -12 2 -9 -4 3 -6 1 -10 -4 -10 -19 0 -12 25 12 40 12 8 25 13 30
12 4 -1 7 2 7 7 0 4 13 8 30 7 16 -1 30 -6 30 -13z m797 10 c-10 -9 -56 -10
-51 -1 3 4 17 8 31 8 15 0 23 -3 20 -7z m-552 -13 c3 -5 1 -10 -4 -10 -6 0
-11 5 -11 10 0 6 2 10 4 10 3 0 8 -4 11 -10z m1670 -1 c11 -17 -1 -21 -15 -4
-8 9 -8 15 -2 15 6 0 14 -5 17 -11z m-1025 -39 c-6 -11 -8 -25 -5 -30 6 -9 -8
-14 -27 -11 -5 0 -8 -3 -8 -9 0 -16 -72 -11 -92 7 -19 17 -24 43 -9 43 5 0 14
-7 21 -15 14 -17 55 -21 44 -4 -9 15 17 30 32 18 8 -6 14 -5 18 6 3 8 12 15
21 15 13 0 14 -4 5 -20z m-1019 -13 c9 -13 -1 -48 -12 -41 -5 3 -12 -2 -15
-10 -3 -9 -10 -14 -14 -11 -4 3 -10 -2 -14 -10 -4 -10 -20 -15 -51 -15 -25 0
-45 -4 -45 -9 0 -5 -15 -4 -35 2 -20 6 -32 13 -28 16 5 3 8 12 9 19 3 32 5 34
29 28 14 -4 25 -3 24 1 -4 25 4 30 41 27 22 -1 40 2 40 7 0 12 63 8 71 -4z
m749 -45 c-8 -3 -17 -8 -20 -12 -3 -4 -14 -4 -25 1 -19 7 -19 8 2 8 12 1 25 6
28 11 4 6 11 7 18 3 8 -5 7 -8 -3 -11z m70 12 c0 -8 -19 -13 -24 -6 -3 5 1 9
9 9 8 0 15 -2 15 -3z m50 -2 c0 -5 -12 -14 -27 -21 l-28 -12 25 21 c29 22 30
23 30 12z m1060 -7 c0 -9 -6 -12 -15 -9 -8 4 -15 10 -15 15 0 5 7 9 15 9 8 0
15 -7 15 -15z m-1316 -6 c-4 -7 5 -10 27 -7 25 2 34 -1 34 -12 1 -37 -55 -41
-71 -5 -9 18 -9 25 0 29 17 7 18 7 10 -5z m830 -85 c6 -18 3 -20 -24 -16 -16
2 -30 9 -30 14 0 5 4 7 9 4 5 -3 12 6 16 21 7 29 15 23 29 -23z m82 5 c3 -6
-5 -3 -20 6 -14 10 -26 19 -26 22 0 7 39 -17 46 -28z m-2079 -31 c-3 -8 -6 -5
-6 6 -1 11 2 17 5 13 3 -3 4 -12 1 -19z m-104 -25 c-3 -7 -6 -13 -8 -13 -2 0
-5 6 -8 13 -3 8 1 14 8 14 7 0 11 -6 8 -14z m1963 6 c3 -6 1 -16 -5 -22 -7 -7
-7 -14 0 -24 8 -9 8 -13 1 -13 -6 0 -14 -9 -17 -20 -3 -11 -12 -20 -20 -20 -7
0 -27 -11 -43 -25 -17 -14 -35 -25 -41 -25 -6 0 -11 -4 -11 -8 0 -10 -90 -43
-100 -37 -4 2 -15 -4 -25 -15 -10 -11 -26 -20 -36 -20 -9 0 -19 -5 -21 -11 -2
-6 -24 -11 -48 -12 -25 0 -53 -6 -62 -14 -12 -11 -21 -12 -36 -4 -22 12 -32 6
-32 -21 0 -10 -6 -18 -12 -19 -7 0 -22 -3 -33 -5 -11 -3 -28 -5 -37 -5 -9 0
-19 -7 -22 -14 -3 -8 -14 -12 -26 -10 -15 3 -20 0 -17 -9 11 -27 -11 -37 -80
-40 -39 -2 -76 -7 -83 -11 -7 -4 -26 -8 -41 -7 -18 0 -29 -4 -29 -13 0 -10
-12 -13 -39 -12 -22 1 -37 6 -35 12 6 14 -33 38 -41 25 -3 -6 -1 -10 5 -10 6
0 8 -4 5 -10 -11 -17 -21 -11 -23 14 -1 22 2 24 28 19 22 -3 30 0 30 10 0 8 6
17 13 20 14 5 39 -18 29 -27 -3 -4 2 -4 11 0 13 5 15 10 8 17 -19 19 -12 30
15 24 14 -2 31 1 38 9 14 13 56 8 56 -7 0 -5 6 -9 14 -9 11 0 13 10 10 41 l-5
40 57 -4 c51 -4 56 -3 39 9 -17 13 -14 19 8 15 4 -1 10 6 13 14 4 8 10 15 15
15 6 0 5 -8 -1 -19 -9 -18 -7 -19 27 -14 l37 6 -17 -26 c-20 -32 -21 -37 -4
-37 7 0 24 14 36 31 18 25 25 28 33 18 7 -11 11 -11 15 -1 2 6 10 12 17 12 7
0 21 9 31 20 10 11 22 20 27 20 5 0 23 14 40 30 16 17 36 30 43 30 8 0 18 6
22 13 4 7 23 19 40 26 18 7 31 17 28 21 -3 5 6 7 20 5 14 -1 28 1 31 6 2 4 11
6 18 3 7 -3 20 1 27 8 8 7 21 13 29 13 8 0 21 5 29 13 7 7 22 10 33 6 14 -4
18 -3 13 5 -4 7 -4 18 -1 26 6 17 42 20 52 4z m365 -26 c12 -32 8 -36 -25 -24
-23 9 -25 13 -14 35 13 29 25 25 39 -11z m-4180 -30 c13 -15 12 -15 -8 -4 -24
12 -29 21 -14 21 5 0 15 -7 22 -17z m3486 -29 c9 -9 8 -14 -4 -18 -14 -6 -32
8 -33 25 0 10 26 6 37 -7z m-563 -3 c4 -5 -1 -8 -9 -7 -21 3 -31 16 -12 16 9
0 18 -4 21 -9z m1172 -13 c-10 -6 -20 -7 -24 -3 -9 8 20 25 31 18 5 -3 2 -10
-7 -15z m-3738 -31 c7 3 12 -4 12 -16 0 -26 -1 -26 -36 5 -18 16 -22 22 -9 16
11 -5 26 -7 33 -5z m2619 -8 c16 -16 4 -49 -18 -49 -11 0 -19 -5 -19 -10 0 -6
-13 -8 -30 -5 -22 4 -30 1 -30 -9 0 -12 -24 -29 -34 -23 -2 1 -13 -6 -25 -17
-11 -10 -27 -16 -35 -13 -8 3 -20 -1 -26 -9 -7 -8 -21 -14 -31 -14 -10 0 -21
-5 -24 -11 -4 -6 -13 -8 -20 -5 -7 2 -18 -1 -24 -7 -6 -6 -11 -8 -11 -4 0 4
-9 3 -21 -4 -11 -6 -44 -12 -72 -14 -62 -3 -94 -10 -112 -25 -7 -6 -31 -13
-52 -15 -96 -10 -139 -18 -145 -29 -6 -8 -8 -8 -8 0 0 17 -38 24 -50 9 -6 -7
-19 -12 -28 -10 -9 2 -23 4 -29 4 -20 1 -15 19 7 26 11 3 33 7 50 7 16 1 27 5
24 10 -3 4 1 8 9 8 7 0 22 8 33 18 19 18 53 30 100 35 12 2 29 9 37 16 9 7 21
10 27 6 5 -3 10 -2 10 3 0 11 64 27 92 24 9 -1 20 7 23 18 4 11 11 18 16 15 5
-4 9 -2 9 4 0 5 14 9 31 9 17 -1 34 5 39 11 8 14 68 22 76 10 3 -5 11 -6 19
-3 8 4 12 10 9 15 -3 5 0 9 5 9 6 0 11 -5 11 -11 0 -5 4 -8 8 -5 5 3 25 1 45
-5 38 -10 45 -8 85 33 20 19 63 23 79 7z m-2277 -21 c0 -4 9 -8 21 -8 11 0 18
-4 14 -9 -3 -5 2 -16 10 -25 8 -8 12 -17 8 -19 -12 -7 -78 28 -76 40 1 5 -9 9
-22 8 -13 -2 -29 2 -34 9 -8 10 -1 13 34 12 25 0 45 -4 45 -8z m-266 -7 c4 -5
-3 -7 -14 -4 -23 6 -26 13 -6 13 8 0 17 -4 20 -9z m409 -15 l32 7 -25 -26 -24
-25 -18 29 c-10 16 -18 33 -18 37 0 4 5 -1 11 -11 8 -14 18 -17 42 -11z m-376
-21 c8 -8 18 -13 23 -10 9 5 24 -44 16 -53 -3 -2 -12 0 -19 7 -8 6 -22 9 -31
5 -14 -6 -21 5 -17 29 0 4 -3 7 -7 7 -5 0 -9 7 -9 15 0 19 24 19 44 0z m-509
-32 c2 -32 0 -35 -11 -22 -6 8 -21 20 -32 27 -19 10 -19 11 5 21 36 14 36 14
38 -26z m1202 6 c0 -6 -4 -7 -10 -4 -5 3 -10 11 -10 16 0 6 5 7 10 4 6 -3 10
-11 10 -16z m-261 -22 c10 11 16 12 21 3 4 -6 10 -11 14 -11 3 1 12 1 19 0 9
0 9 -2 -1 -6 -6 -2 -10 -8 -7 -13 3 -5 -6 -7 -20 -5 -14 1 -25 -2 -25 -8 0 -6
-8 -3 -17 5 -10 9 -24 13 -30 11 -7 -3 -13 0 -13 6 0 5 -9 8 -20 6 -11 -2 -20
1 -20 7 0 5 6 8 13 5 8 -3 20 -1 28 3 8 6 19 4 29 -5 13 -11 17 -11 29 2z
m156 -6 c3 -5 1 -12 -5 -16 -5 -3 -10 1 -10 9 0 18 6 21 15 7z m243 -16 c-3
-3 -9 2 -12 12 -6 14 -5 15 5 6 7 -7 10 -15 7 -18z m-158 -23 c0 -7 -9 -11
-22 -8 -49 9 -68 23 -53 38 9 9 75 -17 75 -30z m-548 -47 c14 -19 8 -26 -12
-15 -11 6 -20 15 -20 20 0 12 22 9 32 -5z m583 -33 c-3 -3 -11 0 -18 7 -9 10
-8 11 6 5 10 -3 15 -9 12 -12z m-535 -1 c0 -11 -31 -24 -39 -16 -3 3 1 10 9
15 19 12 30 12 30 1z m986 -42 c2 -4 -4 -12 -13 -18 -10 -5 -17 -13 -15 -18 2
-4 -1 -9 -7 -11 -6 -2 -11 1 -11 7 0 7 -19 11 -50 10 -61 -3 -76 7 -26 16 20
4 39 11 42 16 6 11 73 8 80 -2z m1129 1 c3 -5 1 -10 -5 -10 -6 0 -8 -5 -4 -12
5 -9 2 -9 -9 1 -9 7 -17 17 -17 22 0 12 27 11 35 -1z m-2295 -60 c13 -8 13
-10 -2 -10 -9 0 -20 5 -23 10 -8 13 5 13 25 0z m111 -16 c12 -14 11 -16 -5
-13 -11 2 -21 10 -24 17 -5 17 13 15 29 -4z m23 -32 c3 -5 -1 -9 -9 -9 -8 0
-12 4 -9 9 3 4 7 8 9 8 2 0 6 -4 9 -8z m106 -46 c0 -11 -19 -15 -25 -6 -3 5 1
10 9 10 9 0 16 -2 16 -4z m40 -16 c0 -5 -4 -10 -9 -10 -6 0 -13 5 -16 10 -3 6
1 10 9 10 9 0 16 -4 16 -10z m1375 -28 c-3 -3 -11 0 -18 7 -9 10 -8 11 6 5 10
-3 15 -9 12 -12z m-955 -62 c0 -5 -4 -10 -10 -10 -5 0 -10 5 -10 10 0 6 5 10
10 10 6 0 10 -4 10 -10z m268 -26 c14 -15 14 -16 -3 -13 -10 2 -20 10 -23 17
-5 17 6 15 26 -4z"/>
</g>
</svg>
